<?xml version="1.0" encoding="utf-8"?>
<!-- Generator: Adobe Illustrator 18.0.0, SVG Export Plug-In . SVG Version: 6.00 Build 0)  -->
<svg version="1.1"
	 id="svg3021" xmlns:sodipodi="http://sodipodi.sourceforge.net/DTD/sodipodi-0.dtd" xmlns:rdf="http://www.w3.org/1999/02/22-rdf-syntax-ns#" xmlns:cc="http://creativecommons.org/ns#" xmlns:inkscape="http://www.inkscape.org/namespaces/inkscape" xmlns:dc="http://purl.org/dc/elements/1.1/" xmlns:svg="http://www.w3.org/2000/svg" inkscape:version="0.48.0 r9654" sodipodi:docname="Plant_002_Growing.svg"
	 xmlns="http://www.w3.org/2000/svg" xmlns:xlink="http://www.w3.org/1999/xlink" x="0px" y="0px" viewBox="0 0 1847.8 1113.6"
	 enable-background="new 0 0 1847.8 1113.6" xml:space="preserve">
<defs>
	
	
		<inkscape:perspective  id="perspective3030" inkscape:vp_z="1052.3622 : 372.04724 : 1" inkscape:vp_x="0 : 372.04724 : 1" inkscape:vp_y="0 : 1000 : 0" sodipodi:type="inkscape:persp3d" inkscape:persp3d-origin="526.18109 : 248.03149 : 1">
		</inkscape:perspective>
	
		<inkscape:perspective  id="perspective2950" inkscape:vp_z="1 : 0.5 : 1" inkscape:vp_x="0 : 0.5 : 1" inkscape:vp_y="0 : 1000 : 0" sodipodi:type="inkscape:persp3d" inkscape:persp3d-origin="0.5 : 0.33333333 : 1">
		</inkscape:perspective>
</defs>
<sodipodi:namedview  id="namedview3025" inkscape:zoom="0.60393228" bordercolor="#666666" borderopacity="1.0" inkscape:cx="937.93833" showgrid="false" inkscape:cy="568.7522" fit-margin-left="0" pagecolor="#ffffff" fit-margin-top="0" inkscape:current-layer="layer1" inkscape:window-height="1138" inkscape:window-maximized="1" inkscape:pageshadow="2" inkscape:window-width="1920" inkscape:pageopacity="0.0" inkscape:window-y="-8" inkscape:window-x="-8" inkscape:document-units="mm" fit-margin-bottom="0" fit-margin-right="0">
	</sodipodi:namedview>
<linearGradient id="path4037_1_" gradientUnits="userSpaceOnUse" x1="366.6657" y1="1179.1388" x2="366.6657" y2="1757.1388" gradientTransform="matrix(0.7998 0 -0.4903 -0.3402 1129.7272 1483.4246)">
	<stop  offset="0" style="stop-color:#000000"/>
	<stop  offset="1" style="stop-color:#000000;stop-opacity:0"/>
</linearGradient>
<path id="path4037" inkscape:connector-curvature="0" fill="url(#path4037_1_)" d="M502.7,834.8c0.8,0.3,1.5,0.5,2.2,0.8
	c0.3,0.1,0.5,0.2,0.8,0.3c0.5,0.2,0.9,0.4,1.4,0.5c0.5,0.2,1,0.4,1.5,0.6c0.2,0.1,0.4,0.2,0.6,0.2c0.3,0.1,0.6,0.2,0.8,0.4
	c0.4,0.2,0.8,0.3,1.2,0.5c0.1,0,0.1,0.1,0.2,0.1c1.9,0.8,3.7,1.7,5.4,2.6c0.3,0.2,0.6,0.3,0.9,0.5c2,1.1,3.8,2.1,5.4,3.2
	c0.3,0.2,0.5,0.4,0.8,0.5c0.6,0.4,1.1,0.8,1.6,1.2c0,0,0.1,0.1,0.1,0.1c0,0,0,0,0.1,0c0.1,0,0.1,0.1,0.1,0.1
	c1.2,0.9,2.2,1.8,3.1,2.6c0.2,0.2,0.4,0.4,0.6,0.5l-0.6-0.1l-0.1,0.3c-12.2,1-29.6-6.9-23.2-8.5c1.6-0.4,4.7-0.2,8.5,1.1
	c1.5,0.6,3.3,1.4,4.1,2c1,0.6,1.8,1.6,1.9,2.2c0,0.3,0.1,0.5,0.2,0.5c0.1,0,0.1-0.2,0.1-0.4c0.3,0-0.2-0.9-0.8-1.5
	c-0.7-0.7-1.8-1.4-3.1-2c-2-1-4.6-1.8-7.6-2.6c-2.9-0.7-5.4-1-8.2-1.1c-9.6-0.4-12.6,2.9-6.4,7.2c1.6,1.1,4.4,2.5,7,3.4
	c8,3,17.8,4.5,24.9,4c2.4-0.2,4.5-0.8,5.7-1.5c0.4,0.6,0.7,1.2,1,1.8c7,11.5,1.8,21.8,14,33.8c0,0,0.1,0.1,0.1,0.1
	c0.2,0.2,0.4,0.4,0.6,0.5c0.3,0.3,0.6,0.5,0.9,0.8c0.1,0.1,0.2,0.2,0.3,0.3c0.4,0.4,0.8,0.7,1.3,1.1c0.4,0.3,0.8,0.6,1.2,0.9
	c0.2,0.2,0.4,0.3,0.6,0.5c0,0,0.1,0,0.1,0.1c0.6,0.5,1.3,0.9,1.9,1.4c0,0,0,0,0,0c0.3,0.2,0.7,0.5,1,0.7c0.4,0.2,0.7,0.5,1.1,0.7
	c0.9,0.4,1.9,0.8,2.9,1.1c0.4,0.1,0.7,0.3,1.1,0.4c0.6,0.2,1.2,0.5,1.7,0.7c0,0,0.1,0,0.2,0.1c0.4,0.1,0.7,0.3,1,0.4
	c0.1,0,0.1,0.1,0.2,0.1c0.3,0.2,0.6,0.3,0.6,0.3l0.1,0c1.2,0.5,2.4,1,3.6,1.4c0,0,0.1,0,0.1,0c1.8,0.7,3.5,1.3,5.3,2
	c2.8,1,5.5,2.1,8.2,3.1c0.9,0.3,1.8,0.7,2.6,1c0.2,0.1,0.5,0.2,0.7,0.3c1.5,0.6,3.1,1.2,4.6,1.7c0.3,0.1,0.5,0.2,0.8,0.3
	c0.4,0.1,0.7,0.3,1.1,0.4c1.4,0.5,2.7,1.1,4.1,1.6c0.5,0.2,1.1,0.4,1.6,0.6c0.3,0.1,0.6,0.2,0.9,0.4c0.5,0.2,1,0.4,1.5,0.6
	c0.3,0.1,0.7,0.3,1,0.4c1.3,0.5,2.5,1,3.7,1.6c0.4,0.2,0.7,0.3,1.1,0.5c0.4,0.2,0.8,0.4,1.2,0.5c0.4,0.2,0.7,0.3,1.1,0.5
	c0.4,0.2,0.8,0.3,1.2,0.5c0.1,0,0.2,0.1,0.3,0.1c0.6,0.3,1.2,0.6,1.8,0.9c0.4,0.2,0.8,0.4,1.1,0.6c0.3,0.2,0.6,0.3,1,0.5
	c0.1,0,0.2,0.1,0.2,0.1c0.6,0.3,1.2,0.6,1.8,0.9c0.4,0.2,0.8,0.4,1.2,0.6c0.3,0.1,0.5,0.3,0.8,0.4c0.1,0,0.1,0.1,0.1,0.1
	c1.2,0.7,2.5,1.4,3.6,2.1c0.1,0,0.1,0.1,0.2,0.1c1.1,0.7,2.2,1.4,3.3,2.1c0.4,0.3,0.8,0.5,1.2,0.8c0.1,0,0.1,0.1,0.2,0.1
	c0.3,0.2,0.5,0.4,0.8,0.6c0.9,0.7,1.7,1.4,2.5,2.1c0.4,0.3,0.7,0.7,1.1,1c0.1,0.1,0.2,0.2,0.3,0.3c0.3,0.3,0.6,0.6,0.9,0.9
	c-8.6-3.1-20.1-6.9-31-10.1c-22.3-6.5-14-16.2-59.9-25.7c-47.2-9.7-116.7-15.6-137-24.4c-6.5-2.8-17.3-9.1-20.2-11.7
	c-0.7-0.6-1.3-1-1.4-0.8c-0.4,0.7,5.5,5.3,10.8,8.3c4.9,2.8,11.2,5.7,18.8,8.7c11.2,6.2,86.4,34,120.4,42.3
	c39.5,9.5,44.4,1.9,60.5,2.2c4.1,1.1,8,2.2,11.6,3.2c9.8,2.9,21.2,7.1,29.4,10.5c13.1,17.9,5.3,33,19.3,50.8c0,0,0,0,0,0
	c0,0,0,0,0,0c0.6,0.8,1.2,1.5,1.9,2.3c0.2,0.2,0.4,0.5,0.6,0.7c0.1,0.1,0.2,0.2,0.3,0.3c0.1,0.1,0.1,0.1,0.2,0.2
	c0.3,0.3,0.6,0.7,1,1c0.2,0.2,0.4,0.4,0.6,0.6c0.2,0.2,0.3,0.3,0.5,0.5c0.2,0.2,0.4,0.4,0.6,0.5c0.1,0.1,0.2,0.2,0.3,0.3
	c0.3,0.2,0.5,0.5,0.8,0.7c0.4,0.4,0.8,0.8,1.3,1.1c-44.6,0.4-79.5,2.7-93.5,6c-6.2,1.2-9.4,2.6-9,4.1h-0.6l33.6,18.2l6.4,0.9
	l113.3,63.8c0,0.3,9.7,7.7,10.1,8c6.5,4.5,55.6,8.2,109.6,8.2s92.4-3.7,85.9-8.2c-0.8-0.6-12-7.2-14.1-7.7l-72.2-62.6l4-1.5
	l-18.9-17.8c-0.1-0.3-0.4-0.5-0.8-0.8c0,0-0.1-0.1-0.2-0.1l-0.6-0.6c-0.7-0.3-1.6-0.5-2.5-0.8c-15.5-5.1-71.9-9-134.2-9.2
	c-1.6-2.3-2.9-4.7-3.9-6.9c-0.1-0.2-0.2-0.5-0.3-0.7c-0.5-1.2-1-2.5-1.4-3.7c0,0,0-0.1,0-0.1c-0.1-0.2-0.1-0.3-0.1-0.5
	c-0.2-0.5-0.3-1-0.4-1.5c-0.1-0.3-0.2-0.5-0.2-0.8c-0.1-0.2-0.1-0.5-0.2-0.7c-0.9-3.7-1.4-7.2-2-10.8c-0.1-0.9-0.3-1.8-0.4-2.7
	c-0.1-1-0.2-2.1-0.4-3.1c-0.1-0.4-0.1-0.9-0.2-1.3c1.1-1.2,2.3-2.4,3.9-3.4c1.4-0.9,3.1-1.7,4.9-2.6c17.7,1.2,46.4,11.9,67.2,4.8
	c17.7-6.3,29.6-32.4,25.8-38.5c1.2-2.6,0.9-5.3-0.7-8c-1.8-3-4.6-5.4-6.9-6.3c-0.6-0.2-0.4,0.1,0.4,0.8c3.5,2.7,5.2,6.7,4.9,9.3
	c-0.8,8.1-75.3,7.2-104.5,13.8c-5.6,1.3-8.3,2.8-9.2,4.4c-5.1-4.7-12-9.3-21.5-13.9c-3.4-1.8-7-3.5-10.6-5.2c-0.1,0-0.1-0.1-0.2-0.1
	c-2.1-1-4.4-1.9-6.7-2.8c-0.1,0-0.2-0.1-0.2-0.1c0,0,0,0-0.1,0c-14-5.7-28.5-10.3-39.7-15.9c0.6-0.7,1.2-1.3,1.9-1.9
	c1-0.8,2.2-1.6,3.6-2.5c14.8,0.6,37.5,8.3,53.3,1.3c13.4-6.1,20.8-28.7,17.2-34c0.5-2.4-0.2-4.8-2.1-7.3c-2-2.6-7-6.7-9.1-7.4
	c-0.1,0-0.1,0-0.2,0c-0.3,0,0,0.2,0.7,0.7c3.4,2.4,7.7,7.8,8,10.2c0.9,7.3-52.5,9.1-75.4,15.7c-22.3,6.5,8.7,16.4,2.4,21.4
	c-1,0.8-1.9,1.7-2.7,2.6c-6.2-3.3-11.1-6.9-14.2-11.3c0,0,0,0,0,0c-1.1-1.5-1.9-3.1-2.4-4.8c-0.1-0.2-0.1-0.3-0.2-0.5
	c-0.1-0.8-0.2-1.6-0.3-2.4c-0.1-0.5-0.1-0.9-0.2-1.4c-0.1-0.4-0.1-0.7-0.2-1.1c0-0.3-0.1-0.6-0.2-0.9c0-0.1-0.1-0.3-0.1-0.4
	c-0.1-0.4-0.2-0.8-0.3-1.3c-0.1-0.3-0.1-0.5-0.2-0.8c-0.1-0.5-0.3-1-0.5-1.6c-0.2-0.5-0.4-1.1-0.6-1.6c-0.1-0.2-0.1-0.3-0.2-0.5
	c-0.1-0.3-0.3-0.6-0.4-0.9c0-0.1,0-0.1-0.1-0.2c-0.2-0.4-0.4-0.8-0.6-1.2c-0.2-0.3-0.4-0.6-0.5-0.9c-0.3-0.6-0.7-1.2-1.1-1.8
	c0,0,0,0,0,0c-0.3-0.4-0.6-0.9-1-1.4c0,0,0,0,0,0c-3.9-5-10.4-10.1-21.2-15.3c-3-1.5-6.4-2.9-9.9-4.2c-0.5-0.2-1-0.4-1.5-0.6
	c-0.2-0.1-0.3-0.1-0.5-0.2c-0.2-0.1-0.3-0.1-0.5-0.2c-2.1-0.9-4.4-1.8-6.7-2.7c-0.8-0.3-1.7-0.5-2.5-0.8c2,0.7,3.9,1.5,5.7,2.2
	c-0.6-0.2-1.2-0.4-1.8-0.6c-0.1,0-0.2-0.1-0.2-0.1c-0.7-0.2-1.5-0.5-2.2-0.7c-0.7-0.2-1.3-0.4-2-0.6
	C504.1,835.2,503.4,835,502.7,834.8L502.7,834.8z M813.1,1001.9c0.1,0,0.2,0.1,0.4,0.1L813.1,1001.9L813.1,1001.9L813.1,1001.9z
	 M661.4,943.6c5.8,3.9,11.6,7.5,7.9,9.8c-1.2,0.7-2.2,1.4-3.2,2.2c0-0.1,0-0.1,0-0.2c-0.2-0.7-0.3-1.5-0.6-2.2
	c-0.1-0.4-0.2-0.7-0.3-1.1c0-0.1,0-0.1-0.1-0.2c-0.3-1.1-0.7-2.1-1.2-3.2c-0.1-0.3-0.3-0.6-0.4-0.9c-0.1-0.3-0.3-0.6-0.4-0.9
	c-0.1-0.2-0.2-0.3-0.3-0.5c-0.2-0.4-0.4-0.8-0.7-1.2c0-0.1-0.1-0.1-0.1-0.2C661.9,944.5,661.7,944.1,661.4,943.6z"/>
<path id="path3139" inkscape:connector-curvature="0" sodipodi:nodetypes="ccccccssscccccc" fill="#B45A27" stroke="#000000" stroke-width="3" d="
	M812.3,853.3c-66.7,0-121.6,10-128,22.8h-0.6L691,919l5.2,2l21.3,150.1c-0.4,0.7-1.4,18-1.4,18.8c0,10.7,43.8,19.3,97.7,19.3
	s97.7-8.6,97.7-19.3c0-1.3-1.7-16.8-3-18.1l18-147.2l6.1-3.5l7.3-45.3l0.2,0.4C933.8,863.3,879,853.3,812.3,853.3z"/>
<path fill="#AE1F24" stroke="#000000" stroke-width="3" d="M786.2,984.4c0,0,91.7,9.1,134.8-12.8l-5.7,46.2c0,0-54.3,15.8-129.1,1.9
	V984.4z"/>
<path id="path3151" sodipodi:cy="752.09448" sodipodi:rx="304" sodipodi:type="arc" sodipodi:cx="466" sodipodi:ry="60" fill="#CC865E" stroke="#000000" stroke-width="3" d="
	M939.9,877.4c0,13.8-56.7,25-126.6,25s-126.6-11.2-126.6-25s56.7-25,126.6-25S939.9,863.6,939.9,877.4z"/>
<path id="path3153" sodipodi:cy="752.09448" sodipodi:rx="304" sodipodi:type="arc" sodipodi:cx="466" sodipodi:ry="60" fill="#B45A27" stroke="#000000" stroke-width="3" d="
	M916.5,878.4c0,11.1-45.8,20.2-102.2,20.2c-56.5,0-102.2-9-102.2-20.2c0-11.1,45.8-20.2,102.2-20.2
	C870.8,858.2,916.5,867.3,916.5,878.4z"/>
<path id="path3864" inkscape:connector-curvature="0" sodipodi:nodetypes="ccccccccccc" fill="#8F6B32" stroke="#000000" stroke-width="3" d="
	M870.6,482.9c7.9,14.2,8.3,31,2,45.9c-11.4,32.3-37.7,60.3-35.9,96.4c12.8,29.7,31,48.8,24.3,82.2c-13.4,52.1-54.7,93.6-60,148.3
	c-1.2,4.7-5,35.7-3.9,41.8l19.7,0.3c-3.6-41.5,14.1-77.5,33.1-112.5c17.6-30.8,36.9-68.2,27.5-103.9c-6.5-37.5-39-52-16.1-98.8
	c13.5-23.5,28.3-50.6,20.6-78.6C879.7,496.2,875.7,489,870.6,482.9L870.6,482.9z"/>
<g id="g2906" transform="matrix(-0.54343456,-0.11253036,-0.11253036,0.54343456,-398.19224,-7.8109586)">
	
		<linearGradient id="path2902_1_" gradientUnits="userSpaceOnUse" x1="-2640.8794" y1="1362.6122" x2="-2574.2141" y2="1393.5042" gradientTransform="matrix(-0.5434 0.1125 -0.1125 -0.5434 -3916.2009 1847.4327)">
		<stop  offset="0" style="stop-color:#37A42C"/>
		<stop  offset="1" style="stop-color:#00892C"/>
	</linearGradient>
	
		<path id="path2902" inkscape:connector-curvature="0" sodipodi:nodetypes="cssssssssssccccc" fill="url(#path2902_1_)" stroke="#000000" stroke-width="3" d="
		M-2478.3,965c-2.8-12.2-16.7-41.1-32.8-59.7c-19.6-22.7-51-48.9-88.9-74.1c-36.7-24.4-64.9-44.5-82.1-58.5
		c-43.9-35.6-70.2-74.1-75.3-110.3c-1.9-13.3-1-23.8,1.6-27c0.6-0.8,0.9,0.8,0.5,3.5c-1.6,11.5,2.2,29.4,7,41.7
		c15,38.2,145,61.2,207.6,102.7c60.8,40.2,3.8,84.5,28.5,112.5c20.7,23.6,38.4,54.7,38.3,67.4c0,3.5-0.3,3.9-0.9,1.4l0,0l0,0v0
		C-2474.9,964.6-2478.3,965-2478.3,965z"/>
	
		<linearGradient id="path2904_1_" gradientUnits="userSpaceOnUse" x1="-2539.98" y1="1353.6582" x2="-2490.751" y2="1381.2068" gradientTransform="matrix(-0.5434 0.1125 -0.1125 -0.5434 -3916.2009 1847.4327)">
		<stop  offset="0" style="stop-color:#00892C"/>
		<stop  offset="1" style="stop-color:#006E29"/>
	</linearGradient>
	
		<path id="path2904" inkscape:connector-curvature="0" sodipodi:nodetypes="ccccccc" fill="url(#path2904_1_)" stroke="#000000" stroke-width="3" d="
		M-2744,694.8c-11.9,3.7,63,154.5,109.2,194.2c49.4,41.5,82.3,0.2,111.9,2.3c1-2.6,5.3,2.8,6.8,0.6c-21.2-14.9-49.4-41-77.4-64.3
		c-57.5-35.3-100.8-82-144.6-130C-2741,695.4-2742.9,694.5-2744,694.8L-2744,694.8z"/>
</g>
<g id="g3848" transform="matrix(0.48790433,0.14039541,-0.14039541,0.48790433,947.15986,426.23806)">
	
		<linearGradient id="path2918_1_" gradientUnits="userSpaceOnUse" x1="1254.9651" y1="916.9303" x2="1349.645" y2="970.4802" gradientTransform="matrix(-0.4373 -0.1258 0.1258 -0.4373 498.9847 856.1712)">
		<stop  offset="0" style="stop-color:#37A42C"/>
		<stop  offset="1" style="stop-color:#00892C"/>
	</linearGradient>
	<path id="path2918" inkscape:connector-curvature="0" fill="url(#path2918_1_)" stroke="#000000" stroke-width="3" d="M130.3,119.5
		c-0.5-0.1-0.4,1.3,0.3,3.5c3,10.6,3.3,36.8,0.4,49c-8.8,37.8-112.4,76-165.4,123.4c-51.5,46.1-7.2,81.1-26.5,110.8
		c-5.3,8.2-10.2,17.1-14.3,25.7c0.9,0.8,1.9,1.4,3,1.9c0.3,0.1,0.6,0.2,0.8,0.3c3.3-6.7,7-13.2,10.6-18.9
		c15.3-24,41.1-52.8,73.2-81.7c31.1-27.9,54.8-50.7,69-66.1c36.3-39.4,55.7-79.1,55.6-113.8c0-12.7-3.6-31.3-6.5-33.9
		C130.5,119.5,130.4,119.5,130.3,119.5z"/>
	
		<linearGradient id="path2920_1_" gradientUnits="userSpaceOnUse" x1="1313.8278" y1="907.747" x2="1248.0061" y2="850.8502" gradientTransform="matrix(-0.4373 -0.1258 0.1258 -0.4373 498.9847 856.1712)">
		<stop  offset="0" style="stop-color:#00892C"/>
		<stop  offset="1" style="stop-color:#006E29"/>
	</linearGradient>
	
		<path id="path2920" inkscape:connector-curvature="0" sodipodi:nodetypes="ccccccc" fill="url(#path2920_1_)" stroke="#000000" stroke-width="3" d="
		M128.9,185.8c11.6,1.8-42.2,148.7-80.2,192.3C8,423.8-24.2,394.3-51.6,400.4c-1.3-2.3-1.9,0.6-3.6-1.3
		c17.8-16.8,42.7-42.2,65.7-67.8c49.1-41,78.8-91,113.3-141.9C126.1,186.7,127.8,185.6,128.9,185.8L128.9,185.8z"/>
</g>
<path id="path3832" inkscape:connector-curvature="0" sodipodi:nodetypes="cssssssssscsccccc" fill="#006E29" stroke="#000000" stroke-width="3" d="
	M876.6,519.5c-2,2.7-5.5,4.9-8.6,5.4c-6.3,1-12.4-2.2-15.5-8.3c-1-2-1.7-4.8-1.8-7c-0.2-8.6,5.9-15.2,13.1-14.2
	c2.1,0.3,3.7,1,5.3,2.4c2.8,2.5,4,5.9,3.4,9.5c-0.2,1.4-1,3.4-1.4,3.5c-0.1,0,0.1-0.4,0.3-0.9c0.6-1.2,1-3.1,0.9-4.4
	c-0.1-1.3-0.8-3.6-1.4-4.7c-1.9-3-4.7-3.4-7-2.5c-8.6,3.7-2.7,22.3,11,19.9l0.6-0.7l0.6,0.4C877.2,518.6,877.3,518.7,876.6,519.5
	L876.6,519.5L876.6,519.5z"/>
<linearGradient id="path3828_1_" gradientUnits="userSpaceOnUse" x1="-2516.6584" y1="1957.2102" x2="-2446.1887" y2="1957.2102" gradientTransform="matrix(0.4645 0 0 -0.4645 2013.9338 1420.2234)">
	<stop  offset="0" style="stop-color:#37A42C"/>
	<stop  offset="1" style="stop-color:#00892C"/>
</linearGradient>
<path id="path3828" inkscape:connector-curvature="0" sodipodi:nodetypes="cssssssssscsccccc" fill="url(#path3828_1_)" stroke="#000000" stroke-width="3" d="
	M877.2,521.7c-2.6,3.2-7,5.8-10.9,6.5c-7.8,1.3-15.4-2.3-19.2-9.3c-1.2-2.3-2.1-5.5-2.1-8.1c0-10,7.7-17.8,16.7-16.8
	c2.6,0.3,4.6,1.1,6.6,2.7c3.4,2.8,4.9,6.8,4,10.9c-0.3,1.6-1.4,4-1.8,4.1c-0.1,0,0.1-0.5,0.4-1.1c0.7-1.4,1.3-3.6,1.2-5.1
	c-0.1-1.5-0.9-4.2-1.7-5.4c-2.3-3.4-5.9-3.9-8.7-2.7c-10.8,4.5-3.9,26,13.3,23l0.7-0.9l0.8,0.5C878,520.6,878,520.7,877.2,521.7
	C877.2,521.7,877.2,521.7,877.2,521.7z"/>
<path id="path3926" inkscape:connector-curvature="0" opacity="0.4" fill="#2E3436" stroke="#000000" stroke-width="3" enable-background="new    " d="
	M865.5,720.2l-4.6,3.9l-5.7,6.7c0,0,1.5-4.3,1.9-4.8c0.4-0.5,3.3-3.6,3.3-3.6L865.5,720.2L865.5,720.2z"/>
<g id="g3840" transform="matrix(0.5035573,-0.06474222,0.06474222,0.5035573,1038.2701,82.50045)">
	
		<linearGradient id="path2895_1_" gradientUnits="userSpaceOnUse" x1="-7004.6479" y1="2678.5811" x2="-7051.4341" y2="2645.1926" gradientTransform="matrix(0.5036 6.474204e-002 6.474204e-002 -0.5036 2767.9771 2782.3921)">
		<stop  offset="0" style="stop-color:#37A42C"/>
		<stop  offset="1" style="stop-color:#00892C"/>
	</linearGradient>
	
		<path id="path2895" inkscape:connector-curvature="0" sodipodi:nodetypes="cssssssssssccccc" fill="url(#path2895_1_)" stroke="#000000" stroke-width="3" d="
		M-503.8,1206.7c-1-13.2-11.9-49.5-25.9-71.5c-17-26.7-45.9-58.9-81.7-91.1c-34.7-31.2-61.1-56.5-77-73.7
		c-40.5-44-62.1-88.2-62-126.9c0.1-14.2,4-35,7.2-37.9c0.8-0.7,0.8,1,0,3.7c-3.4,11.8-3.6,41-0.5,54.6
		c9.8,42.2,125.4,84.8,184.6,137.7c57.5,51.4,8.1,90.5,29.6,123.6c18.1,27.9,34.3,63.4,32.3,76.7c-0.6,3.6-3.4,3.7-3.6,1l0,0h0
		l3.4-1.3L-503.8,1206.7L-503.8,1206.7z"/>
	
		<linearGradient id="path2897_1_" gradientUnits="userSpaceOnUse" x1="-7199.4609" y1="2561.8623" x2="-7139.4609" y2="2593.3623" gradientTransform="matrix(0.5036 6.474204e-002 6.474204e-002 -0.5036 2767.9771 2782.3921)">
		<stop  offset="0" style="stop-color:#00892C"/>
		<stop  offset="1" style="stop-color:#006E29"/>
	</linearGradient>
	
		<path id="path2897" inkscape:connector-curvature="0" sodipodi:nodetypes="ccccccc" fill="url(#path2897_1_)" stroke="#000000" stroke-width="3" d="
		M-741.2,879.4c-13,2.1,47.1,165.9,89.4,214.6c45.4,51,81.3,18.2,111.9,24.9c1.5-2.5,2.1,0.6,4-1.5c-19.9-18.8-47.6-47-73.2-75.7
		c-54.8-45.8-87.9-101.5-126.4-158.3C-738.1,880.4-740,879.2-741.2,879.4z"/>
</g>
<path id="path3930" inkscape:connector-curvature="0" sodipodi:nodetypes="cccsscc" opacity="0.4" fill="#2E3436" stroke="#000000" stroke-width="3" enable-background="new    " d="
	M851.4,628l-7.5,4l-3.9,0.4c0,0-0.7-2.1-0.1-2.3c2.2-0.6,0.8,0.8,5.3-1.4c5.3-2.6,5.1-2.3,5.1-2.3L851.4,628z"/>
<linearGradient id="path3953_1_" gradientUnits="userSpaceOnUse" x1="-383.3995" y1="378.4174" x2="-373.3995" y2="319.2175" gradientTransform="matrix(0.5077 0 0 -0.5077 989.028 1260.1782)">
	<stop  offset="0" style="stop-color:#2E3436"/>
	<stop  offset="1" style="stop-color:#2E3436;stop-opacity:0"/>
</linearGradient>
<path id="path3953" inkscape:connector-curvature="0" sodipodi:nodetypes="cccccccscccc" opacity="0.3" fill="url(#path3953_1_)" enable-background="new    " d="
	M802.8,1108.7c-42.4-1.1-76.3-7.5-83.6-15.6l-1.8-2l0.3-6.4c0.2-3.5,0.5-8.4,0.7-10.7l0.3-4.4l2.8,1.9c5.7,3.8,15.2,6.6,30.3,9.1
	c19.9,3.3,34.8,4.3,64.6,4.3l61.1-3.5l-16.9,25C841.5,1108.8,822.1,1108.8,802.8,1108.7L802.8,1108.7z"/>
<linearGradient id="path3963_1_" gradientUnits="userSpaceOnUse" x1="130.1365" y1="147.0962" x2="140.1365" y2="87.8963" gradientTransform="matrix(0.7715 -1.821351e-002 -1.821351e-002 -0.7715 710.9649 1028.816)">
	<stop  offset="0" style="stop-color:#2E3436"/>
	<stop  offset="1" style="stop-color:#2E3436;stop-opacity:0"/>
</linearGradient>
<path id="path3963" inkscape:connector-curvature="0" sodipodi:nodetypes="cccsccccc" opacity="0.3" fill="url(#path3963_1_)" enable-background="new    " d="
	M822.6,974.5L701.1,954l-3.4-33.2c8.8,5.5,23.3,9.5,46.3,12.7c30.4,4.2,53,5.2,98.4,4.2l84.1-12.5l-16.2,43.6
	C881.4,973.3,851.9,974,822.6,974.5L822.6,974.5L822.6,974.5z"/>
<path fill="#B45A27" stroke="#000000" stroke-width="3" d="M691,919c0,0,59,24.2,136.3,19.1c77.3-5.1,105.5-17,105.5-17"/>
<path fill="#AE1F24" stroke="#000000" stroke-width="3" d="M707.9,1059.7c0,0,10.6,3,16.4,10.9c5.9,8,16,12.3,16,12.3
	s35.7-57.8,33.7-68.6c-2.1-10.8-10.2-6.8-10.2-6.8S731.8,1042.5,707.9,1059.7z"/>
<path fill="#80171A" stroke="#000000" stroke-width="3" d="M769.5,982.3c0,0-49.3-39.1-62.5-34.2c0,0,2,9,7.5,13.9
	c5.5,4.9,50.1,25.8,50.1,25.8L769.5,982.3z"/>
<path fill="#AE1F24" stroke="#000000" stroke-width="3" d="M707,948.1c0,0,1.6,25.4-5.1,43s-6.6,36.7-6.6,36.7s52.3,0.9,70.6-14.4
	l0.8-29.4C766.6,984.1,713.2,960,707,948.1z"/>
<path fill="#AE1F24" stroke="#000000" stroke-width="3" d="M828,1074c0,0-11,0.4-18.5,6.8c-7.5,6.4-18.5,8.3-18.5,8.3
	s-21.3-64.5-16.8-74.5c4.5-10,11.5-4.2,11.5-4.2S808.8,1051.7,828,1074z"/>
<path fill="#80171A" stroke="#000000" stroke-width="3" d="M786.2,984.4c0,0,57.1-26.6,68.8-18.7c0,0-4,8.3-10.6,11.7
	c-6.5,3.5-54.8,13.4-54.8,13.4L786.2,984.4z"/>
<path fill="#AE1F24" stroke="#000000" stroke-width="3" d="M854.9,965.7c0,0-7.5,24.4-5.1,43c2.4,18.6-2.1,37.2-2.1,37.2
	s-51.1-11.3-65.3-30.4l6.1-28.8C788.6,986.8,846.1,975.7,854.9,965.7z"/>
<path fill="#AE1F24" stroke="#000000" stroke-width="3" d="M780.9,974.8c-36.9-5.5-42.7,56.4-6.4,54.4
	C810.8,1027.3,805.7,978.5,780.9,974.8z"/>
<g>
	<g>
		
			<path id="path3780_3_" inkscape:connector-curvature="0" sodipodi:nodetypes="ccccccccc" fill="#B45A27" stroke="#000000" stroke-width="3" d="
			M1671.5,967.8l13.6-1.2l91.2-37l14.8,13.6l1.2-21l29.6,29.6l-16-39.4l41.9,32c0,0-21-112.2-176.3-112.2"/>
		<g>
			<g>
				<g>
					
						<path id="path2991_3_" inkscape:connector-curvature="0" sodipodi:nodetypes="ccccccccc" fill="#B45A27" stroke="#000000" stroke-width="3" d="
						M1672.4,967.8l-13.6-1.2l-91.2-37l-14.8,13.6l-1.2-21l-29.6,29.6l16-39.4l-41.9,32c0,0,21-112.2,176.3-112.2"/>
					<path id="path3834_1_" inkscape:connector-curvature="0" fill="#341514" stroke="#000000" stroke-width="3" d="M1632.8,956.9
						l-40-16.9c0,0,12.2-25.6,35.6-33.9c23.5-8.3,5.6,5.2,5.6,5.2s-9.1,18.2-8.3,23.5C1626.7,939.9,1632.8,956.9,1632.8,956.9
						L1632.8,956.9z"/>
					<path id="path3832_1_" inkscape:connector-curvature="0" fill="#341514" stroke="#000000" stroke-width="3" d="M1710.2,956.9
						l40-16.9c0,0-12.2-25.6-35.6-33.9c-23.5-8.3-5.6,5.2-5.6,5.2s9.1,18.2,8.3,23.5C1716.3,939.9,1710.2,956.9,1710.2,956.9z"/>
					
						<path id="path3767_1_" inkscape:connector-curvature="0" sodipodi:nodetypes="cscc" fill="#FFFFFF" stroke="#000000" stroke-width="3" d="
						M1570.2,930c0,0,35.7-44.4,58.4-42.7c22.7,1.7,0,18.7,0,18.7s-27.5,13.5-34.4,33.6"/>
					<path id="path3765_1_" inkscape:connector-curvature="0" fill="#FFFFFF" stroke="#000000" stroke-width="3" d="M1653.9,901.2
						c0,0,0-24-16.6-20.5c-16.6,3.5-3.9,37-3.9,37l20.9-14.8L1653.9,901.2z"/>
					<path id="path2998_1_" inkscape:connector-curvature="0" fill="#FFFFFF" stroke="#000000" stroke-width="3" d="M1626,880.3
						c0,0,11.3-9.6,18.3-9.6c7,0,6.1-5.2,6.1-5.2s-8.7-6.5-15.3-3.5C1628.6,865,1626,880.3,1626,880.3z"/>
					
						<path id="path3778_1_" inkscape:connector-curvature="0" sodipodi:nodetypes="cscc" fill="#FFFFFF" stroke="#000000" stroke-width="3" d="
						M1773.7,930c0,0-35.7-44.4-58.4-42.7c-22.7,1.7,0,18.7,0,18.7s27.5,13.5,34.4,33.6"/>
					<path id="path3782_1_" inkscape:connector-curvature="0" fill="#FFFFFF" stroke="#000000" stroke-width="3" d="M1690,901.2
						c0,0,0-24,16.6-20.5c16.6,3.5,3.9,37,3.9,37l-20.9-14.8L1690,901.2z"/>
					<path id="path3786_1_" inkscape:connector-curvature="0" fill="#FFFFFF" stroke="#000000" stroke-width="3" d="M1717.9,880.3
						c0,0-11.3-9.6-18.3-9.6c-7,0-6.1-5.2-6.1-5.2s8.7-6.5,15.3-3.5C1715.3,865,1717.9,880.3,1717.9,880.3z"/>
					<path id="path3824_1_" inkscape:connector-curvature="0" sodipodi:nodetypes="csccc" stroke="#000000" stroke-width="3" d="
						M1642,906.3c0,0-6.2-17,7.4-20c2-0.4,4.3,14.6,4.3,14.6 M1653.8,900.8l-11.7,5.4"/>
					<path id="path3830_1_" inkscape:connector-curvature="0" sodipodi:nodetypes="cscc" stroke="#000000" stroke-width="3" d="
						M1700.9,906.2c0,0-1.1-17.5,12.8-14.7c2.6,0.5-3.3,23.3-3.3,23.3S1704.6,909.2,1700.9,906.2z"/>
					
						<path id="path2991_2_" inkscape:connector-curvature="0" sodipodi:nodetypes="ccccccccc" fill="none" stroke="#000000" stroke-width="3" d="
						M1672.4,967.8l-13.6-1.2l-91.2-37l-14.8,13.6l-1.2-21l-29.6,29.6l16-39.4l-41.9,32c0,0,21-112.2,176.3-112.2"/>
					
						<path id="path3780_6_" inkscape:connector-curvature="0" sodipodi:nodetypes="ccccccccc" fill="none" stroke="#000000" stroke-width="3" d="
						M1805.9,912.4l41.9,32c0,0-21-112.2-176.3-112.2"/>
					
						<path id="path3788_1_" sodipodi:cy="223.4064" sodipodi:rx="27.52108" sodipodi:type="arc" sodipodi:cx="310.82629" sodipodi:ry="23.473862" fill="#FFFFFF" stroke="#000000" stroke-width="3" d="
						M1627.2,934.6c0,20.4,19.8,37,44.3,37c24.5,0,44.4-16.5,44.4-36.9c0,0,0,0,0-0.1c0-20.4-19.9-36.9-44.4-36.9
						S1627.2,914.2,1627.2,934.6L1627.2,934.6L1627.2,934.6z"/>
					
						<path id="path3790_1_" sodipodi:cy="226.49075" sodipodi:rx="7.7583475" sodipodi:type="arc" sodipodi:cx="309.28546" sodipodi:ry="7.7583475" stroke="#000000" stroke-width="3" d="
						M1687.1,946.6c0,8.2-6.6,14.9-14.7,14.9c-8.1,0-14.7-6.6-14.7-14.8c0,0,0,0,0,0c0-8.2,6.6-14.9,14.7-14.9
						C1680.5,931.7,1687.1,938.4,1687.1,946.6C1687.1,946.6,1687.1,946.6,1687.1,946.6z"/>
					<path fill="#AE1F24" stroke="#000000" stroke-width="3" d="M1548.8,817.7c-1.9-1-3.7-0.8-5.5,0.1c-2.9,1.4-4.6,3.9-6,6.4
						c-3.1,5.4-4.8,11.2-6.2,17c-2.1,8.4-3.3,16.9-4.1,25.5c-0.7,7.6-0.9,15.3-0.4,22.9c0.1,1.9,0.8,3.3,2.8,4.5
						c11,6.6,16,16.1,14.9,27.8c-1.1,11.6-8.3,20-19.7,25.9c-9.6,4.9-20.2,6.8-31.1,7c-6.2,0.1-12.2-0.7-17.7-3
						c-8.8-3.6-14.2-9.6-15.9-18c-2-9.9,1.1-18.9,7.7-27.1c2.9-3.6,6.5-6.7,10.6-9.3c0.5-0.3,0.9-1,1-1.6c1.5-7.5,0.9-15.1,0.8-22.6
						c-0.2-8-0.2-16-0.1-24c0.1-6.4,0.2-12.9,0.9-19.3c0.9-9.1,2-18.3,3.5-27.4c2-12.5,5.4-24.9,10.3-36.9
						c4.9-12.1,11.3-23.6,20.4-33.9c12.5-14.3,28.5-24.4,48.3-29.8c6.2-1.7,12.4-3,18.8-3.5c6.8-0.6,13.6-1.3,20.5-1.4
						c14.5-0.2,28.6,1.6,42.5,5c16.9,4.2,32.6,10.6,47.3,18.8c20.1,11.1,37.4,25,53.2,40.4c0.5,0.4,1,0.9,1.4,1.3
						c0.8,0.9,1.8,1.4,3.2,1.5c1.3,0.1,2.7,1,3.5,1.8c1.9,1.9,3.8,4,5.3,6.2c6.9,10.1,11.9,20.9,15,32.3c0.9,3.2,1.4,6.5,1.1,9.9
						c-0.3,2.5-1.4,4.5-4.1,5.8c-7,3.3-14.2,5.9-21.6,8.4c-18.1,6.1-36.4,11.6-54.9,16.5c-17.7,4.7-35.5,9.3-53.3,13.7
						c-11.5,2.8-23.1,5.2-34.7,7.6c-7.4,1.5-14.8,2.9-22.3,4c-6,0.9-12,1.3-18.1,1.8c-2.4,0.2-4.1-0.9-5.7-2.3
						c-2.7-2.5-4.5-5.5-6.1-8.7c-3.4-6.8-5.7-14-7.3-21.3c-0.8-3.7-1.3-7.5-1.8-11.3c-0.2-2.1-0.1-4.3,0-6.4
						C1545.5,820.1,1545.9,818.2,1548.8,817.7z M1572.2,871c0,0.1,0,0.1,0,0.2c4.3-0.5,8.6-0.9,12.8-1.6c9.6-1.7,19.3-3.3,28.8-5.4
						c16-3.5,32-7.1,47.8-11.1c28.5-7.1,56.7-14.9,84.4-24.1c8.4-2.8,16.7-5.6,24.6-9.4c2.1-1,3.2-2.5,3.6-4.5
						c0.6-3.5,0-6.9-0.8-10.2c-1.8-7.2-4.6-14.1-8-20.8c-2.8-5.6-6-11-10.1-16c-2.4-3-5.3-4.9-9.7-3.7c-5,1.4-10.1,2.6-14.9,4.4
						c-12.4,4.6-24.7,9.5-37.1,14.2c-14,5.3-28.3,10-43,13.6c-7.1,1.8-14.3,3.4-21.5,5c-4.4,1-8.8,1.9-13.3,2.8
						c-4.3,0.9-8.7,1.8-13.1,2.7c-3.4,0.7-6.8,1.3-10.2,2c-4,0.8-8.1,1.5-12.1,2.3c-3.5,0.7-7,1.3-10.4,2c-3.8,0.7-7.5,1.4-11.3,2.3
						c-3.6,0.8-7.1,1.7-10.6,2.6c-1.2,0.3-2,1-2.1,2.1c-0.2,2.4-0.6,4.8-0.4,7.2c0.9,11.3,3.9,22.2,8.7,32.6
						c1.6,3.3,3.4,6.5,6.3,9.1c1.4,1.3,3,2.3,5.2,2.1C1568.1,871.3,1570.2,871.2,1572.2,871z M1497.9,954.1c3-0.4,6-0.7,8.9-1.3
						c8.3-1.4,16-4.1,22.8-8.6c11.8-7.9,17.2-21.2,13.2-33.3c-3.2-9.8-10.2-16.6-21.2-20.1c-8.5-2.7-17.2-2.2-25.9-0.2
						c-11.3,2.6-20.7,7.8-27.5,16.2c-6.5,8-9.6,16.8-7.7,26.5c1.6,8.4,7,14.4,15.8,18C1483.1,954.1,1490.4,954.5,1497.9,954.1z
						 M1578.4,699.5c6.4-0.5,12.9-0.9,19.3-1.4c6.4-0.5,12.9-0.2,19.2,0.4c6.4,0.6,12.8,1.4,19.2,2.5c6.3,1.1,12.4,2.8,18.6,4.2
						C1630,697.6,1604.6,695.4,1578.4,699.5z"/>
					<path fill="#FFFFFF" stroke="#000000" stroke-width="3" d="M1572.2,871c-2.1,0.1-4.2,0.3-6.3,0.4c-2.2,0.2-3.8-0.9-5.2-2.1
						c-2.9-2.6-4.7-5.8-6.3-9.1c-4.9-10.4-7.9-21.3-8.7-32.6c-0.2-2.4,0.2-4.8,0.4-7.2c0.1-1.1,0.9-1.8,2.1-2.1
						c3.5-0.9,7.1-1.8,10.6-2.6c3.7-0.8,7.5-1.5,11.3-2.3c3.5-0.7,7-1.3,10.4-2c4-0.8,8.1-1.5,12.1-2.3c3.4-0.7,6.8-1.3,10.2-2
						c4.4-0.9,8.7-1.7,13.1-2.7c4.4-0.9,8.9-1.8,13.3-2.8c7.2-1.6,14.4-3.2,21.5-5c14.7-3.6,28.9-8.3,43-13.6
						c12.4-4.7,24.6-9.6,37.1-14.2c4.8-1.8,9.9-3.1,14.9-4.4c4.4-1.2,7.3,0.7,9.7,3.7c4.1,5,7.3,10.4,10.1,16
						c3.4,6.7,6.3,13.6,8,20.8c0.8,3.3,1.5,6.7,0.8,10.2c-0.4,2-1.4,3.5-3.6,4.5c-7.9,3.8-16.2,6.6-24.6,9.4
						c-27.7,9.2-55.9,17-84.4,24.1c-15.9,3.9-31.8,7.6-47.8,11.1c-9.5,2.1-19.2,3.7-28.8,5.4c-4.2,0.7-8.5,1.1-12.8,1.6
						C1572.3,871.1,1572.2,871.1,1572.2,871z"/>
					
						<path id="path3784_1_" inkscape:connector-curvature="0" sodipodi:nodetypes="csc" fill="#FFFFFF" stroke="#000000" stroke-width="3" d="
						M1783.3,860.2c0,0,6.5-55.3-10.5-73.2c-17-17.9-53.6,50.1-53.6,50.1"/>
					<path id="path3808_1_" inkscape:connector-curvature="0" sodipodi:nodetypes="csc" stroke="#000000" stroke-width="3" d="
						M1766.5,849.6c0,0,4.4-18.4-2.8-25c-7.2-6.6-25.5,15-25.5,15"/>
				</g>
				<path fill="#FFFFFF" stroke="#000000" stroke-width="3" d="M1497.9,954.1c-7.5,0.4-14.8,0-21.7-2.8c-8.9-3.6-14.2-9.6-15.8-18
					c-1.9-9.7,1.2-18.5,7.7-26.5c6.9-8.4,16.3-13.6,27.5-16.2c8.6-2,17.4-2.5,25.9,0.2c11,3.5,18,10.3,21.2,20.1
					c4,12.1-1.3,25.4-13.2,33.3c-6.8,4.5-14.5,7.2-22.8,8.6C1503.9,953.4,1500.9,953.7,1497.9,954.1z"/>
			</g>
			
				<path id="path3780_2_" inkscape:connector-curvature="0" sodipodi:nodetypes="ccccccccc" fill="#B45A27" stroke="#000000" stroke-width="3" d="
				M1791.1,943.2l1.2-21l29.6,29.6l-16-39.4l41.9,32c0,0-16.5-88.1-128.4-108.2"/>
		</g>
	</g>
	
		<path id="path3794_1_" inkscape:connector-curvature="0" sodipodi:nodetypes="cc" fill="none" stroke="#000000" stroke-width="3" d="
		M1652.4,967.6c0,0,13.8,2.6,20-2.9"/>
	
		<path id="path3796_1_" inkscape:connector-curvature="0" sodipodi:nodetypes="cc" fill="none" stroke="#000000" stroke-width="3" d="
		M1690.7,967.6c0,0-13.8,2.6-20-2.9"/>
</g>
</svg>
