<?xml version="1.0" encoding="utf-8"?>
<!-- Generator: Adobe Illustrator 16.0.0, SVG Export Plug-In . SVG Version: 6.00 Build 0)  -->
<!DOCTYPE svg PUBLIC "-//W3C//DTD SVG 1.1//EN" "http://www.w3.org/Graphics/SVG/1.1/DTD/svg11.dtd">
<svg version="1.1"
	 id="svg3887" xmlns:dc="http://purl.org/dc/elements/1.1/" xmlns:cc="http://creativecommons.org/ns#" xmlns:rdf="http://www.w3.org/1999/02/22-rdf-syntax-ns#" xmlns:svg="http://www.w3.org/2000/svg" xmlns:sodipodi="http://sodipodi.sourceforge.net/DTD/sodipodi-0.dtd" xmlns:inkscape="http://www.inkscape.org/namespaces/inkscape" sodipodi:docname="drawing.svg" inkscape:version="0.48.3.1 r9886"
	 xmlns="http://www.w3.org/2000/svg" xmlns:xlink="http://www.w3.org/1999/xlink" x="0px" y="0px" width="612px" height="792px"
	 viewBox="0 0 612 792" enable-background="new 0 0 612 792" xml:space="preserve">
<sodipodi:namedview  showgrid="false" id="namedview3891" inkscape:cy="572.66927" inkscape:cx="609.78782" inkscape:zoom="1.4080808" borderopacity="1.0" bordercolor="#666666" pagecolor="#ffffff" inkscape:window-maximized="1" inkscape:window-y="24" inkscape:window-x="56" inkscape:current-layer="layer1" inkscape:pageopacity="0.0" inkscape:window-height="876" inkscape:document-units="in" inkscape:window-width="1384" inkscape:pageshadow="2">
	</sodipodi:namedview>
<path id="path3811" inkscape:connector-curvature="0" fill="#120505" stroke="#000000" stroke-width="0.9" d="M592.725,480.123
	c0,0-6.979,0.685-8.894,0.274c-1.916-0.411-2.372-1.095-2.6-1.87c-0.229-0.775-0.046-0.729-0.046-0.729s-1.733-1.187-0.958-2.555
	s2.053-1.733,4.379-2.053s5.108,0.411,5.519-0.729s0.958-3.831,0.958-3.831l7.252,10.581L592.725,480.123z"/>
<path id="path3179" sodipodi:nodetypes="ccsscssscscccc" inkscape:transform-center-y="306.87595" inkscape:transform-center-x="-119.72122" inkscape:connector-curvature="0" fill="#B45704" stroke="#000000" stroke-width="0.9" d="
	M577.017,360.685l-11.159-9.835c0,0,4.092-2.412,4.836-4.454c0.744-2.041,3.72-5.381,13.577-3.34
	c9.856,2.041,9.333,25.649,9.333,25.649s3.004,34.667,9.757,47.939c6.754,13.273,26.081,36.793,31.438,45.176
	c5.355,8.383,27.478-4.191,24.45,12.808s-29.573,7.685-29.573,7.685s-7.685-1.863-17.465-21.656
	c-2.445-4.948-3.659-7.428-4.707-6.042l0,0l-9.39,13.277l-8.386-20.512"/>
<path id="path3882" sodipodi:nodetypes="csccsssccccccccscsscscssccssc" inkscape:connector-curvature="0" fill="#120505" stroke="#000000" stroke-width="0.9" d="
	M577.501,397.97c0,0-5.838,8.888-8.907,6.951s-10.207-13.602-10.207-13.602l1.425,1.657c0,0-4.086,4.011-5.604,4.012
	c-1.517,0.002-1.68-2.22-1.854-3.722c-0.175-1.502,5.104-9.958,6.956-10.336s9.786,2.617,9.786,2.617l5.451-11.054
	c0,0,1.054-6.064-2.837-8.25c-2.606-1.706-4.348-2.442-4.348-2.442l2.972-1.796l9.293-0.506c0,0,1.171-0.935,4.247,1.386
	c0,0,6.24,4.382,3.466,20.701c-0.58,0.323-4.708,19.415,0.71,37.218s7.346,25.921,18.479,35.223
	c-1.009,1.658-0.956,5.226-1.189,9.548c-0.466,8.646,0.117,19.765-0.582,19.765c-1.397,0-19.561,1.917-20.492-0.411
	c0,0-0.498-0.959-0.758-2l-0.042-0.165c0,0-3.47-1.166-0.493-5.434c0.213-0.306,3.694,0.313,9.097,0.313
	c1.564,0-0.946-5.921-1.688-7.156c-1.853-3.993-4.116-24.328-4.116-24.328s-3.005-2.265-6.504-10.497
	c-3.499-8.233-4.734-20.13-5.146-25.77c-0.411-5.64,0.552-8.595,0.552-8.595"/>
<path id="path3832" inkscape:transform-center-y="315.12687" inkscape:transform-center-x="-89.577722" inkscape:connector-curvature="0" fill="#350F0F" stroke="#000000" stroke-width="0.9" d="
	M568.19,361.84l7.497,0.461c0,0,0.096-4.897-2.9-7.98c-2.995-3.083-1.277,0.371-1.277,0.371s0.005,3.522-0.532,4.26
	C570.44,359.69,568.19,361.84,568.19,361.84z"/>
<path id="path3765" inkscape:transform-center-y="290.09815" inkscape:transform-center-x="-87.586847" inkscape:connector-curvature="0" fill="#FFFFFF" stroke="#000000" stroke-width="0.9" d="
	M569.805,351.558c0,0,0-3.876,2.177-3.313c2.178,0.564,0.516,5.991,0.516,5.991l-2.75-2.396L569.805,351.558z"/>
<path id="path2998" inkscape:transform-center-y="272.33268" inkscape:transform-center-x="-89.289425" inkscape:connector-curvature="0" fill="#FFFFFF" stroke="#000000" stroke-width="0.9" d="
	M573.472,348.175c0,0-1.49-1.551-2.406-1.551c-0.917,0-0.803-0.846-0.803-0.846s1.146-1.057,2.006-0.564
	S573.472,348.175,573.472,348.175L573.472,348.175z"/>
<path id="path3778" sodipodi:nodetypes="cscc" inkscape:transform-center-y="312.10888" inkscape:transform-center-x="-106.59953" inkscape:connector-curvature="0" fill="#FFFFFF" stroke="#000000" stroke-width="0.9" d="
	M579.733,361.567c0,0-2.219-9.752-5.179-10.251c-2.96-0.5-0.973,3.559-0.973,3.559s2.782,3.565,2.618,7.635"/>
<path id="path3788" sodipodi:type="arc" sodipodi:cx="310.82629" sodipodi:cy="223.4064" sodipodi:rx="27.52108" sodipodi:ry="23.473862" inkscape:transform-center-y="313.56845" inkscape:transform-center-x="-69.656321" fill="#FFFFFF" stroke="#000000" stroke-width="2" d="
	M562.007,357.269c-0.002,3.522,2.142,6.38,4.789,6.383c2.646,0.002,4.794-2.851,4.796-6.374c0-0.003,0-0.006,0-0.01
	c0-3.522-2.146-6.378-4.792-6.378C564.152,350.89,562.007,353.746,562.007,357.269L562.007,357.269z"/>
<path id="path3790" sodipodi:type="arc" sodipodi:cx="309.28546" sodipodi:cy="226.49075" sodipodi:rx="7.7583475" sodipodi:ry="7.7583475" inkscape:transform-center-y="308.64667" inkscape:transform-center-x="-53.331775" stroke="#000000" stroke-width="2.7341" d="
	M565.131,355.999c0.001,1.417-1.138,2.565-2.542,2.566s-2.544-1.147-2.545-2.563c0,0,0-0.001,0-0.002
	c0-1.416,1.138-2.565,2.542-2.565c1.405-0.001,2.544,1.147,2.545,2.563C565.131,355.997,565.131,355.998,565.131,355.999z"/>
<path id="path3824" sodipodi:nodetypes="csccc" inkscape:transform-center-y="288.34681" inkscape:transform-center-x="-84.730842" inkscape:connector-curvature="0" stroke="#000000" stroke-width="0.9" d="
	M571.367,352.378c0,0,0.813-2.745-0.971-3.232c-0.257-0.07-0.571,2.354-0.571,2.354 M569.825,351.5l1.542,0.878"/>
<path id="path3949" sodipodi:nodetypes="cssc" inkscape:transform-center-y="275.43023" inkscape:transform-center-x="-154.98347" inkscape:connector-curvature="0" fill="#FFFFFF" stroke="#000000" stroke-width="0.9" d="
	M583.13,346.922c0,0,4.607-8.712,11.369-6.463c0,0-0.558,10.762-1.859,12.989C591.338,355.675,589.639,356.015,583.13,346.922z"/>
<path id="path3959" sodipodi:nodetypes="cscc" inkscape:transform-center-y="260.64006" inkscape:transform-center-x="-152.39282" inkscape:connector-curvature="0" stroke="#000000" stroke-width="0.9" d="
	M594.493,340.645c0,0-8.649-1.618-12.641,4.824c-0.371,0.599,1.308,1.293,1.308,1.293S587.054,339.531,594.493,340.645
	L594.493,340.645z"/>
<path id="path3808" sodipodi:nodetypes="csc" inkscape:transform-center-y="284.79542" inkscape:transform-center-x="-147.20028" inkscape:connector-curvature="0" stroke="#000000" stroke-width="0.9" d="
	M587.519,352.186c0,0,2.295-2.324,1.815-3.943c-0.479-1.62-5.121-0.067-5.121-0.067"/>
<path id="path3880" sodipodi:nodetypes="ccsssccsc" inkscape:connector-curvature="0" fill="#120505" stroke="#000000" stroke-width="0.9" d="
	M574.893,377.717l-2.322,13.674c0,0-10.578-0.516-12.643,0.516c-2.064,1.032-5.16,11.869-4.386,13.417
	c0.773,1.548,1.806,3.87,3.612,3.354c1.806-0.517,5.16-6.192,5.16-6.192l-2.322-1.29c0,0,12.9,10.063,17.286,11.095
	c4.387,1.031,5.935-1.678,5.935-1.678"/>
<path id="path3884" sodipodi:nodetypes="cscsc" inkscape:connector-curvature="0" fill="#350F0F" stroke="#000000" stroke-width="0.9" d="
	M610.627,457.442c0,0,12.384-5.082,12.384-11.869c0-0.129,5.419,7.354,5.419,7.354s-5.558,11.224-14.062,11.224
	C614.238,464.15,610.627,457.442,610.627,457.442L610.627,457.442z"/>
<path id="path3888" sodipodi:nodetypes="csssc" inkscape:connector-curvature="0" fill="#350F0F" stroke="#000000" stroke-width="0.9" d="
	M619.657,472.794c0,0,6.914-0.49,14.964-11.224c0.388-0.517-0.387,3.096,5.935,3.354c1.296,0.054-3.293,9.193-14.577,14.836
	C625.462,480.018,619.657,472.794,619.657,472.794L619.657,472.794z"/>
<path id="path3890" sodipodi:nodetypes="cszsc" inkscape:connector-curvature="0" fill="#350F0F" stroke="#000000" stroke-width="0.9" d="
	M647.046,465.255c0,0-2.087,11.209-9.761,18.882c0,0,7.863,1.595,12.862-0.091s10.917-12.892,5.747-18.062
	C654.161,464.251,647.046,465.255,647.046,465.255L647.046,465.255z"/>
<path id="path3079" sodipodi:nodetypes="ccsscscc" inkscape:connector-curvature="0" fill="#724A26" stroke="#000000" stroke-width="1.6594" d="
	M558.167,206.719l12.317-45.52c0,0-25.695-43.914-79.259-43.914c0,0-16.065-48.198-110.319-51.411
	c-94.253-3.213-133.882,66.406-133.882,66.406s-40.6,13.357-29.99,66.406c0.536,2.678,97.467,11.782,97.467,11.782L558.167,206.719z
	"/>
<path id="path3849" inkscape:connector-curvature="0" fill="#B9926F" stroke="#000000" stroke-width="1.6594" d="M392.688,73.372
	l-1.071,48.733l92.111,1.071C483.729,123.176,466.056,78.192,392.688,73.372L392.688,73.372z"/>
<path id="path3851" sodipodi:nodetypes="ccsc" inkscape:connector-curvature="0" fill="#B9926F" stroke="#000000" stroke-width="1.6594" d="
	M376.087,122.641l1.071-49.269c0,0-57.504,2.88-100.68,46.056C275.942,119.963,376.087,122.641,376.087,122.641z"/>
<path id="path3853" inkscape:connector-curvature="0" fill="none" stroke="#000000" stroke-width="1.6594" d="M385.19,73.372
	l-2.678,126.921"/>
<path id="path3855" sodipodi:nodetypes="ccsc" inkscape:connector-curvature="0" fill="none" stroke="#000000" stroke-width="1.6594" d="
	M330.568,200.291l133.445,0.536c0,0-2.548-55.276,37.128-69.081c32.32-11.245,54.015,11.525,54.015,11.525"/>
<path id="path3857" sodipodi:type="arc" sodipodi:cx="1060.1704" sodipodi:cy="1811.2642" sodipodi:rx="240.43439" sodipodi:ry="263.02554" fill="#241B14" stroke="#000000" stroke-width="10" d="
	M561.916,194.134c0.002,24.105-17.858,43.648-39.893,43.651c-22.034,0.002-39.899-19.536-39.901-43.641c0-0.003,0-0.006,0-0.01
	c-0.003-24.105,17.857-43.648,39.892-43.651c22.035-0.003,39.899,19.536,39.902,43.641
	C561.916,194.127,561.916,194.131,561.916,194.134z"/>
<path id="path3857-0" sodipodi:type="arc" sodipodi:cx="1060.1704" sodipodi:cy="1811.2642" sodipodi:rx="240.43439" sodipodi:ry="263.02554" fill="#241B14" stroke="#000000" stroke-width="10" d="
	M313.697,194.938c0.003,24.105-17.858,43.648-39.892,43.651c-22.035,0.002-39.899-19.536-39.902-43.641c0-0.003,0-0.006,0-0.01
	c-0.002-24.105,17.858-43.648,39.893-43.651c22.035-0.002,39.899,19.536,39.901,43.641
	C313.697,194.931,313.697,194.934,313.697,194.938z"/>
<path id="path3877" sodipodi:nodetypes="csc" inkscape:connector-curvature="0" fill="none" stroke="#000000" stroke-width="1.6594" d="
	M223.996,199.81c0,0-5.891-70.208,53.018-70.208s52.481,70.69,52.481,70.69"/>
<path id="path3896" sodipodi:type="arc" sodipodi:cx="1060.1704" sodipodi:cy="1811.2642" sodipodi:rx="240.43439" sodipodi:ry="263.02554" fill="#806A58" stroke="#000000" stroke-width="15.1239" d="
	M543.563,194.134c0.002,12.49-9.643,22.616-21.541,22.618s-21.546-10.123-21.547-22.613c0-0.001,0-0.003,0-0.005
	c-0.002-12.49,9.644-22.617,21.542-22.618s21.545,10.123,21.546,22.613C543.563,194.131,543.563,194.132,543.563,194.134z"/>
<path id="path3898" sodipodi:type="arc" sodipodi:cx="1060.1704" sodipodi:cy="1811.2642" sodipodi:rx="240.43439" sodipodi:ry="263.02554" fill="#806A58" stroke="#000000" stroke-width="15.1239" d="
	M295.077,194.134c0.001,12.49-9.644,22.616-21.542,22.618s-21.545-10.123-21.547-22.613c0-0.001,0-0.003,0-0.005
	c-0.001-12.49,9.644-22.617,21.542-22.618s21.545,10.123,21.547,22.613C295.077,194.131,295.077,194.132,295.077,194.134z"/>
<path id="path4126" sodipodi:nodetypes="csccc" inkscape:connector-curvature="0" fill="#724A26" stroke="#000000" stroke-width="0.99" d="
	M484.682,372.103c0,0,32.504-56.54,73.015-37.433c1.985,0.937-2.091,11.64-2.091,11.64l-9.767-6.063
	C545.839,340.246,523.496,334.079,484.682,372.103L484.682,372.103z"/>
<path id="path3079-6" sodipodi:nodetypes="ccsscscc" inkscape:connector-curvature="0" fill="#724A26" stroke="#000000" stroke-width="1.6594" d="
	M554.201,454.307l12.316-45.521c0,0-25.694-43.914-79.258-43.913c0,0-16.066-48.198-110.319-51.411
	c-94.253-3.213-133.883,66.406-133.883,66.406s-40.6,13.357-29.99,66.406c0.536,2.678,97.466,11.781,97.466,11.781L554.201,454.307z
	"/>
<path id="path3849-3" inkscape:connector-curvature="0" fill="#B9926F" stroke="#000000" stroke-width="1.6594" d="M388.722,320.959
	l-1.071,48.733l92.111,1.071C479.762,370.764,462.09,325.779,388.722,320.959z"/>
<path id="path3851-3" sodipodi:nodetypes="ccsc" inkscape:connector-curvature="0" fill="#B9926F" stroke="#000000" stroke-width="1.6594" d="
	M372.12,370.228l1.071-49.269c0,0-57.504,2.88-100.68,46.056C271.976,367.55,372.12,370.228,372.12,370.228L372.12,370.228z"/>
<path id="path3853-7" inkscape:connector-curvature="0" fill="none" stroke="#000000" stroke-width="1.6594" d="M381.225,320.959
	l-2.678,126.92"/>
<path id="path3855-3" sodipodi:nodetypes="ccsc" inkscape:connector-curvature="0" fill="none" stroke="#000000" stroke-width="1.6594" d="
	M326.602,447.879l133.445,0.535c0,0-2.548-55.276,37.128-69.081c32.321-11.246,54.015,11.525,54.015,11.525"/>
<path id="path3857-7" sodipodi:type="arc" sodipodi:cx="1060.1704" sodipodi:cy="1811.2642" sodipodi:rx="240.43439" sodipodi:ry="263.02554" fill="#241B14" stroke="#000000" stroke-width="10" d="
	M557.949,441.722c0.003,24.104-17.857,43.647-39.893,43.65c-22.034,0.003-39.898-19.536-39.901-43.641c0-0.003,0-0.007,0-0.01
	c-0.002-24.105,17.858-43.648,39.893-43.651c22.034-0.002,39.899,19.536,39.901,43.642
	C557.949,441.715,557.949,441.718,557.949,441.722z"/>
<path id="path3857-0-1" sodipodi:type="arc" sodipodi:cx="1060.1704" sodipodi:cy="1811.2642" sodipodi:rx="240.43439" sodipodi:ry="263.02554" fill="#241B14" stroke="#000000" stroke-width="10" d="
	M309.731,442.524c0.002,24.105-17.858,43.648-39.893,43.651c-22.035,0.003-39.899-19.536-39.902-43.641c0-0.004,0-0.007,0-0.011
	c-0.002-24.104,17.858-43.647,39.893-43.65s39.899,19.536,39.902,43.641C309.731,442.518,309.731,442.521,309.731,442.524z"/>
<path id="path3877-9" sodipodi:nodetypes="csc" inkscape:connector-curvature="0" fill="none" stroke="#000000" stroke-width="1.6594" d="
	M220.03,447.397c0,0-5.891-70.208,53.018-70.208s52.482,70.69,52.482,70.69"/>
<path id="path3896-4" sodipodi:type="arc" sodipodi:cx="1060.1704" sodipodi:cy="1811.2642" sodipodi:rx="240.43439" sodipodi:ry="263.02554" fill="#806A58" stroke="#000000" stroke-width="15.1239" d="
	M539.597,441.722c0.001,12.49-9.644,22.616-21.542,22.618c-11.898,0.001-21.545-10.123-21.547-22.613c0-0.002,0-0.003,0-0.005
	c-0.001-12.49,9.644-22.616,21.542-22.618c11.898-0.001,21.546,10.123,21.547,22.612
	C539.597,441.718,539.597,441.72,539.597,441.722z"/>
<path id="path3898-4" sodipodi:type="arc" sodipodi:cx="1060.1704" sodipodi:cy="1811.2642" sodipodi:rx="240.43439" sodipodi:ry="263.02554" fill="#806A58" stroke="#000000" stroke-width="15.1239" d="
	M291.11,441.722c0.001,12.49-9.643,22.616-21.542,22.618c-11.898,0.001-21.545-10.123-21.547-22.613c0-0.002,0-0.003,0-0.005
	c-0.001-12.49,9.643-22.616,21.542-22.618c11.898-0.001,21.545,10.123,21.546,22.612C291.11,441.718,291.11,441.72,291.11,441.722z"
	/>
<path id="path4124" inkscape:connector-curvature="0" fill="none" stroke="#000000" d="M236.685,238.699l324.091-0.982"/>
<path id="path4128" inkscape:connector-curvature="0" fill="none" stroke="#000000" stroke-width="1.144" d="M236.685,486.699
	l424.123-0.982"/>
<path id="path3179-6" sodipodi:nodetypes="ccssc" inkscape:transform-center-y="306.87595" inkscape:transform-center-x="-119.72122" inkscape:connector-curvature="0" fill="#B45704" stroke="#000000" stroke-width="1.0808" d="
	M442.186,122.193l13.088-19.794c0,0-4.799-2.829-5.672-5.223c-0.872-2.394-4.362-6.312-15.923-3.917s-10.946,28.734-10.946,28.734"
	/>
<path id="path3882-8" sodipodi:nodetypes="ccccccc" inkscape:connector-curvature="0" fill="#120505" stroke="#000000" stroke-width="0.906" d="
	M445.393,122.803c0,0-1.548,0.213,3.016-2.351c3.057-2,5.099-2.864,5.099-2.864l-3.484-2.106l-10.899-0.594
	c0,0-1.373-1.096-4.98,1.626c0,0-1.305,0.37-4.273,5.718"/>
<path id="path3832-5" inkscape:transform-center-y="315.12687" inkscape:transform-center-x="-89.577722" inkscape:connector-curvature="0" fill="#350F0F" stroke="#000000" stroke-width="1.3682" d="
	M452.538,115.288l-8.794,0.541c0,0-0.111-5.744,3.402-9.359s1.498,0.435,1.498,0.435s-0.005,4.131,0.625,4.997
	C449.898,112.767,452.538,115.288,452.538,115.288z"/>
<path id="path3765-7" inkscape:transform-center-y="290.09815" inkscape:transform-center-x="-87.586847" inkscape:connector-curvature="0" fill="#FFFFFF" stroke="#000000" stroke-width="1.1541" d="
	M450.645,103.229c0,0,0-4.547-2.554-3.885c-2.553,0.661-0.604,7.026-0.604,7.026l3.226-2.811L450.645,103.229z"/>
<path id="path2998-3" inkscape:transform-center-y="272.33268" inkscape:transform-center-x="-89.289425" inkscape:connector-curvature="0" fill="#FFFFFF" stroke="#000000" stroke-width="1.1541" d="
	M446.344,99.262c0,0,1.747-1.819,2.822-1.819s0.94-0.992,0.94-0.992s-1.344-1.24-2.352-0.662S446.344,99.262,446.344,99.262z"/>
<path id="path3778-8" sodipodi:nodetypes="cscc" inkscape:transform-center-y="312.10888" inkscape:transform-center-x="-106.59953" inkscape:connector-curvature="0" fill="#FFFFFF" stroke="#000000" stroke-width="1.275" d="
	M439,114.968c0,0,2.603-11.438,6.074-12.023c3.472-0.585,1.14,4.175,1.14,4.175s-3.263,4.181-3.07,8.954"/>
<path id="path3788-2" sodipodi:type="arc" sodipodi:cx="310.82629" sodipodi:cy="223.4064" sodipodi:rx="27.52108" sodipodi:ry="23.473862" inkscape:transform-center-y="313.56845" inkscape:transform-center-x="-69.656321" fill="#FFFFFF" stroke="#000000" stroke-width="2" d="
	M459.79,109.927c0,4.131-2.517,7.48-5.621,7.48s-5.621-3.349-5.621-7.48c0-4.132,2.517-7.481,5.621-7.481
	S459.79,105.795,459.79,109.927z"/>
<path id="path3790-0" sodipodi:type="arc" sodipodi:cx="309.28546" sodipodi:cy="226.49075" sodipodi:rx="7.7583475" sodipodi:ry="7.7583475" inkscape:transform-center-y="308.64667" inkscape:transform-center-x="-53.331775" stroke="#000000" stroke-width="2.3991" d="
	M456.126,108.438c0,1.661,1.336,3.007,2.983,3.007c1.646,0,2.982-1.346,2.982-3.007s-1.336-3.008-2.982-3.008
	C457.462,105.43,456.126,106.776,456.126,108.438z"/>
<path id="path3824-4" sodipodi:nodetypes="csccc" inkscape:transform-center-y="288.34681" inkscape:transform-center-x="-84.730842" inkscape:connector-curvature="0" stroke="#000000" stroke-width="1.1541" d="
	M448.812,104.19c0,0-0.952-3.219,1.139-3.79c0.302-0.083,0.67,2.76,0.67,2.76 M450.62,103.161l-1.809,1.03"/>
<path id="path3949-4" sodipodi:nodetypes="cssc" inkscape:transform-center-y="275.43023" inkscape:transform-center-x="-154.98347" inkscape:connector-curvature="0" fill="#FFFFFF" stroke="#000000" stroke-width="0.9954" d="
	M435.017,97.792c0,0-5.403-10.219-13.335-7.581c0,0,0.654,12.623,2.182,15.234C425.39,108.057,427.382,108.456,435.017,97.792z"/>
<path id="path3959-8" sodipodi:nodetypes="cscc" inkscape:transform-center-y="260.64006" inkscape:transform-center-x="-152.39282" inkscape:connector-curvature="0" stroke="#000000" stroke-width="0.9954" d="
	M421.688,90.429c0,0,10.145-1.897,14.826,5.658c0.435,0.703-1.534,1.516-1.534,1.516S430.414,89.124,421.688,90.429z"/>
<path id="path3808-4" sodipodi:nodetypes="csc" inkscape:transform-center-y="284.79542" inkscape:transform-center-x="-147.20028" inkscape:connector-curvature="0" stroke="#000000" stroke-width="1.3682" d="
	M429.869,103.965c0,0-2.691-2.725-2.13-4.625c0.562-1.899,6.007-0.078,6.007-0.078"/>
<path id="path3993" inkscape:connector-curvature="0" fill="none" stroke="#000000" stroke-width="1.6594" d="M392.688,73.372
	l-1.071,48.733l92.111,1.071C483.729,123.176,466.056,78.192,392.688,73.372L392.688,73.372z"/>
<path id="path3079_1_" sodipodi:nodetypes="ccsscscc" inkscape:connector-curvature="0" fill="#724A26" stroke="#000000" stroke-width="1.6594" d="
	M604.311,699.252l12.317-45.52c0,0-25.695-43.914-79.259-43.914c0,0-16.065-48.197-110.319-51.41
	c-94.253-3.213-133.882,66.405-133.882,66.405s-40.6,13.357-29.99,66.405c0.536,2.678,97.467,11.782,97.467,11.782L604.311,699.252z
	"/>
<path id="path3849_1_" inkscape:connector-curvature="0" fill="#B9926F" stroke="#000000" stroke-width="1.6594" d="
	M438.832,565.905l-1.071,48.733l92.111,1.07C529.872,615.709,512.199,570.725,438.832,565.905L438.832,565.905z"/>
<path id="path3851_1_" sodipodi:nodetypes="ccsc" inkscape:connector-curvature="0" fill="#B9926F" stroke="#000000" stroke-width="1.6594" d="
	M422.23,615.174l1.071-49.269c0,0-57.504,2.88-100.681,46.056C322.086,612.496,422.23,615.174,422.23,615.174z"/>
<path id="path3853_1_" inkscape:connector-curvature="0" fill="none" stroke="#000000" stroke-width="1.6594" d="M431.334,565.905
	l-2.678,126.921"/>
<path id="path3855_1_" sodipodi:nodetypes="ccsc" inkscape:connector-curvature="0" fill="none" stroke="#000000" stroke-width="1.6594" d="
	M376.712,692.824l133.445,0.535c0,0-2.548-55.275,37.128-69.08c32.32-11.245,54.015,11.525,54.015,11.525"/>
<path id="path3857_1_" sodipodi:type="arc" sodipodi:cx="1060.1704" sodipodi:cy="1811.2642" sodipodi:rx="240.43439" sodipodi:ry="263.02554" fill="#241B14" stroke="#000000" stroke-width="10" d="
	M608.06,686.668c0.002,24.104-17.858,43.647-39.893,43.65c-22.034,0.002-39.899-19.536-39.901-43.641c0-0.004,0-0.007,0-0.01
	c-0.003-24.105,17.857-43.648,39.892-43.651c22.035-0.003,39.899,19.536,39.902,43.641C608.06,686.66,608.06,686.664,608.06,686.668
	z"/>
<path id="path3857-0_1_" sodipodi:type="arc" sodipodi:cx="1060.1704" sodipodi:cy="1811.2642" sodipodi:rx="240.43439" sodipodi:ry="263.02554" fill="#241B14" stroke="#000000" stroke-width="10" d="
	M359.841,687.471c0.003,24.105-17.858,43.648-39.892,43.65c-22.035,0.003-39.9-19.535-39.902-43.641c0-0.003,0-0.006,0-0.01
	c-0.002-24.105,17.858-43.648,39.893-43.65c22.035-0.003,39.899,19.535,39.901,43.641
	C359.841,687.464,359.841,687.467,359.841,687.471z"/>
<path id="path3877_1_" sodipodi:nodetypes="csc" inkscape:connector-curvature="0" fill="none" stroke="#000000" stroke-width="1.6594" d="
	M270.14,692.344c0,0-5.891-70.208,53.018-70.208s52.481,70.69,52.481,70.69"/>
<path id="path3896_1_" sodipodi:type="arc" sodipodi:cx="1060.1704" sodipodi:cy="1811.2642" sodipodi:rx="240.43439" sodipodi:ry="263.02554" fill="#806A58" stroke="#000000" stroke-width="15.1239" d="
	M589.706,686.668c0.002,12.489-9.643,22.615-21.541,22.617s-21.546-10.123-21.547-22.613c0-0.001,0-0.003,0-0.004
	c-0.002-12.49,9.644-22.617,21.542-22.619c11.898-0.001,21.545,10.123,21.546,22.613
	C589.706,686.664,589.706,686.666,589.706,686.668z"/>
<path id="path3898_1_" sodipodi:type="arc" sodipodi:cx="1060.1704" sodipodi:cy="1811.2642" sodipodi:rx="240.43439" sodipodi:ry="263.02554" fill="#806A58" stroke="#000000" stroke-width="15.1239" d="
	M341.221,686.668c0.001,12.489-9.644,22.615-21.542,22.617s-21.545-10.123-21.547-22.613c0-0.001,0-0.003,0-0.004
	c-0.001-12.49,9.644-22.617,21.542-22.619c11.898-0.001,21.545,10.123,21.547,22.613
	C341.221,686.664,341.221,686.666,341.221,686.668z"/>
<path id="path4124_1_" inkscape:connector-curvature="0" fill="none" stroke="#000000" d="M282.828,731.232l324.091-0.982"/>
<path id="path3179-6_1_" sodipodi:nodetypes="ccssc" inkscape:transform-center-y="306.87595" inkscape:transform-center-x="-119.72122" inkscape:connector-curvature="0" fill="#B45704" stroke="#000000" stroke-width="1.0808" d="
	M488.329,614.727l13.088-19.795c0,0-4.799-2.828-5.672-5.223c-0.872-2.395-4.362-6.312-15.923-3.918
	c-11.561,2.395-10.946,28.734-10.946,28.734"/>
<path id="path3882-8_1_" sodipodi:nodetypes="ccccccc" inkscape:connector-curvature="0" fill="#120505" stroke="#000000" stroke-width="0.906" d="
	M491.536,615.336c0,0-1.548,0.213,3.016-2.351c3.057-2,5.099-2.864,5.099-2.864l-3.484-2.105l-10.899-0.594
	c0,0-1.373-1.096-4.98,1.626c0,0-1.305,0.37-4.273,5.718"/>
<path id="path3832-5_1_" inkscape:transform-center-y="315.12687" inkscape:transform-center-x="-89.577722" inkscape:connector-curvature="0" fill="#350F0F" stroke="#000000" stroke-width="1.3682" d="
	M498.682,607.82l-8.794,0.541c0,0-0.111-5.744,3.402-9.359s1.498,0.436,1.498,0.436s-0.005,4.131,0.625,4.996
	C496.042,605.301,498.682,607.82,498.682,607.82z"/>
<path id="path3765-7_1_" inkscape:transform-center-y="290.09815" inkscape:transform-center-x="-87.586847" inkscape:connector-curvature="0" fill="#FFFFFF" stroke="#000000" stroke-width="1.1541" d="
	M496.788,595.763c0,0,0-4.547-2.554-3.886c-2.553,0.662-0.604,7.027-0.604,7.027l3.226-2.811L496.788,595.763z"/>
<path id="path2998-3_1_" inkscape:transform-center-y="272.33268" inkscape:transform-center-x="-89.289425" inkscape:connector-curvature="0" fill="#FFFFFF" stroke="#000000" stroke-width="1.1541" d="
	M492.487,591.795c0,0,1.747-1.818,2.822-1.818s0.94-0.992,0.94-0.992s-1.344-1.24-2.352-0.662
	C492.891,588.901,492.487,591.795,492.487,591.795z"/>
<path id="path3778-8_1_" sodipodi:nodetypes="cscc" inkscape:transform-center-y="312.10888" inkscape:transform-center-x="-106.59953" inkscape:connector-curvature="0" fill="#FFFFFF" stroke="#000000" stroke-width="1.275" d="
	M485.144,607.502c0,0,2.603-11.438,6.074-12.023c3.472-0.585,1.14,4.175,1.14,4.175s-3.263,4.181-3.07,8.954"/>
<path id="path3788-2_1_" sodipodi:type="arc" sodipodi:cx="310.82629" sodipodi:cy="223.4064" sodipodi:rx="27.52108" sodipodi:ry="23.473862" inkscape:transform-center-y="313.56845" inkscape:transform-center-x="-69.656321" fill="#FFFFFF" stroke="#000000" stroke-width="2" d="
	M505.934,602.46c0,4.132-2.517,7.48-5.621,7.48s-5.621-3.349-5.621-7.48s2.517-7.481,5.621-7.481S505.934,598.328,505.934,602.46z"
	/>
<path id="path3790-0_1_" sodipodi:type="arc" sodipodi:cx="309.28546" sodipodi:cy="226.49075" sodipodi:rx="7.7583475" sodipodi:ry="7.7583475" inkscape:transform-center-y="308.64667" inkscape:transform-center-x="-53.331775" stroke="#000000" stroke-width="2.3991" d="
	M502.27,600.971c0,1.661,1.336,3.008,2.983,3.008c1.646,0,2.982-1.347,2.982-3.008s-1.336-3.008-2.982-3.008
	C503.605,597.963,502.27,599.31,502.27,600.971z"/>
<path id="path3824-4_1_" sodipodi:nodetypes="csccc" inkscape:transform-center-y="288.34681" inkscape:transform-center-x="-84.730842" inkscape:connector-curvature="0" stroke="#000000" stroke-width="1.1541" d="
	M494.955,596.724c0,0-0.952-3.219,1.139-3.79c0.302-0.082,0.67,2.76,0.67,2.76 M496.764,595.693l-1.809,1.03"/>
<path id="path3949-4_1_" sodipodi:nodetypes="cssc" inkscape:transform-center-y="275.43023" inkscape:transform-center-x="-154.98347" inkscape:connector-curvature="0" fill="#FFFFFF" stroke="#000000" stroke-width="0.9954" d="
	M481.16,590.326c0,0-5.403-10.219-13.335-7.582c0,0,0.654,12.623,2.182,15.234C471.533,600.59,473.525,600.989,481.16,590.326z"/>
<path id="path3959-8_1_" sodipodi:nodetypes="cscc" inkscape:transform-center-y="260.64006" inkscape:transform-center-x="-152.39282" inkscape:connector-curvature="0" stroke="#000000" stroke-width="0.9954" d="
	M467.832,582.963c0,0,10.145-1.898,14.826,5.658c0.435,0.702-1.534,1.516-1.534,1.516S476.558,581.656,467.832,582.963z"/>
<path id="path3808-4_1_" sodipodi:nodetypes="csc" inkscape:transform-center-y="284.79542" inkscape:transform-center-x="-147.20028" inkscape:connector-curvature="0" stroke="#000000" stroke-width="1.3682" d="
	M476.013,596.498c0,0-2.691-2.725-2.13-4.625c0.562-1.899,6.007-0.078,6.007-0.078"/>
<path id="path3179-6_2_" sodipodi:nodetypes="ccssc" inkscape:transform-center-y="306.87595" inkscape:transform-center-x="-119.72122" inkscape:connector-curvature="0" fill="#B45704" stroke="#000000" stroke-width="1.0808" d="
	M395.216,613.727l13.088-19.795c0,0-4.799-2.828-5.672-5.223c-0.872-2.395-4.362-6.312-15.923-3.918
	c-11.561,2.395-10.946,28.734-10.946,28.734"/>
<path id="path3882-8_2_" sodipodi:nodetypes="ccccccc" inkscape:connector-curvature="0" fill="#120505" stroke="#000000" stroke-width="0.906" d="
	M398.423,614.336c0,0-1.548,0.213,3.016-2.351c3.057-2,5.099-2.864,5.099-2.864l-3.484-2.105l-10.899-0.594
	c0,0-1.373-1.096-4.98,1.626c0,0-1.305,0.37-4.273,5.718"/>
<path id="path3832-5_2_" inkscape:transform-center-y="315.12687" inkscape:transform-center-x="-89.577722" inkscape:connector-curvature="0" fill="#350F0F" stroke="#000000" stroke-width="1.3682" d="
	M405.568,606.82l-8.794,0.541c0,0-0.111-5.744,3.402-9.359s1.498,0.436,1.498,0.436s-0.005,4.131,0.625,4.996
	C402.929,604.301,405.568,606.82,405.568,606.82z"/>
<path id="path3765-7_2_" inkscape:transform-center-y="290.09815" inkscape:transform-center-x="-87.586847" inkscape:connector-curvature="0" fill="#FFFFFF" stroke="#000000" stroke-width="1.1541" d="
	M403.675,594.763c0,0,0-4.547-2.554-3.886c-2.553,0.662-0.604,7.027-0.604,7.027l3.226-2.811L403.675,594.763z"/>
<path id="path2998-3_2_" inkscape:transform-center-y="272.33268" inkscape:transform-center-x="-89.289425" inkscape:connector-curvature="0" fill="#FFFFFF" stroke="#000000" stroke-width="1.1541" d="
	M399.374,590.795c0,0,1.747-1.818,2.822-1.818s0.94-0.992,0.94-0.992s-1.344-1.24-2.352-0.662
	C399.777,587.901,399.374,590.795,399.374,590.795z"/>
<path id="path3778-8_2_" sodipodi:nodetypes="cscc" inkscape:transform-center-y="312.10888" inkscape:transform-center-x="-106.59953" inkscape:connector-curvature="0" fill="#FFFFFF" stroke="#000000" stroke-width="1.275" d="
	M392.03,606.502c0,0,2.603-11.438,6.074-12.023c3.472-0.585,1.14,4.175,1.14,4.175s-3.263,4.181-3.07,8.954"/>
<path id="path3788-2_2_" sodipodi:type="arc" sodipodi:cx="310.82629" sodipodi:cy="223.4064" sodipodi:rx="27.52108" sodipodi:ry="23.473862" inkscape:transform-center-y="313.56845" inkscape:transform-center-x="-69.656321" fill="#FFFFFF" stroke="#000000" stroke-width="2" d="
	M412.82,601.46c0,4.132-2.517,7.48-5.621,7.48s-5.621-3.349-5.621-7.48s2.517-7.481,5.621-7.481S412.82,597.328,412.82,601.46z"/>
<path id="path3790-0_2_" sodipodi:type="arc" sodipodi:cx="309.28546" sodipodi:cy="226.49075" sodipodi:rx="7.7583475" sodipodi:ry="7.7583475" inkscape:transform-center-y="308.64667" inkscape:transform-center-x="-53.331775" stroke="#000000" stroke-width="2.3991" d="
	M409.156,599.971c0,1.661,1.336,3.008,2.983,3.008c1.646,0,2.982-1.347,2.982-3.008s-1.336-3.008-2.982-3.008
	C410.492,596.963,409.156,598.31,409.156,599.971z"/>
<path id="path3824-4_2_" sodipodi:nodetypes="csccc" inkscape:transform-center-y="288.34681" inkscape:transform-center-x="-84.730842" inkscape:connector-curvature="0" stroke="#000000" stroke-width="1.1541" d="
	M401.842,595.724c0,0-0.952-3.219,1.139-3.79c0.302-0.082,0.67,2.76,0.67,2.76 M403.65,594.693l-1.809,1.03"/>
<path id="path3949-4_2_" sodipodi:nodetypes="cssc" inkscape:transform-center-y="275.43023" inkscape:transform-center-x="-154.98347" inkscape:connector-curvature="0" fill="#FFFFFF" stroke="#000000" stroke-width="0.9954" d="
	M388.047,589.326c0,0-5.403-10.219-13.335-7.582c0,0,0.654,12.623,2.182,15.234C378.42,599.59,380.412,599.989,388.047,589.326z"/>
<path id="path3959-8_2_" sodipodi:nodetypes="cscc" inkscape:transform-center-y="260.64006" inkscape:transform-center-x="-152.39282" inkscape:connector-curvature="0" stroke="#000000" stroke-width="0.9954" d="
	M374.719,581.963c0,0,10.145-1.898,14.826,5.658c0.435,0.702-1.534,1.516-1.534,1.516S383.444,580.656,374.719,581.963z"/>
<path id="path3808-4_2_" sodipodi:nodetypes="csc" inkscape:transform-center-y="284.79542" inkscape:transform-center-x="-147.20028" inkscape:connector-curvature="0" stroke="#000000" stroke-width="1.3682" d="
	M382.899,595.498c0,0-2.691-2.725-2.13-4.625c0.562-1.899,6.007-0.078,6.007-0.078"/>
<path id="path3993_1_" inkscape:connector-curvature="0" fill="none" stroke="#000000" stroke-width="1.6594" d="M438.832,565.905
	l-1.071,48.733l92.111,1.07C529.872,615.709,512.199,570.725,438.832,565.905L438.832,565.905z"/>
</svg>
