<?xml version="1.0" encoding="utf-8"?>
<!-- Generator: Adobe Illustrator 16.0.0, SVG Export Plug-In . SVG Version: 6.00 Build 0)  -->
<!DOCTYPE svg PUBLIC "-//W3C//DTD SVG 1.1//EN" "http://www.w3.org/Graphics/SVG/1.1/DTD/svg11.dtd">
<svg version="1.1"
	 id="svg2" xmlns:dc="http://purl.org/dc/elements/1.1/" xmlns:cc="http://creativecommons.org/ns#" xmlns:rdf="http://www.w3.org/1999/02/22-rdf-syntax-ns#" xmlns:svg="http://www.w3.org/2000/svg" xmlns:sodipodi="http://sodipodi.sourceforge.net/DTD/sodipodi-0.dtd" xmlns:inkscape="http://www.inkscape.org/namespaces/inkscape" sodipodi:docname="eco.jpg.svg" inkscape:version="0.48.3.1 r9886"
	 xmlns="http://www.w3.org/2000/svg" xmlns:xlink="http://www.w3.org/1999/xlink" x="0px" y="0px" width="640px" height="480px"
	 viewBox="0 0 640 480" enable-background="new 0 0 640 480" xml:space="preserve">
<sodipodi:namedview  id="namedview4" showguides="true" inkscape:cy="-1234.9386" inkscape:cx="-1323.9218" inkscape:zoom="0.10955059" showgrid="false" guidetolerance="10" gridtolerance="10" objecttolerance="10" bordercolor="#666666" pagecolor="#ffffff" borderopacity="1" inkscape:current-layer="svg2" inkscape:window-maximized="0" inkscape:window-y="96" inkscape:window-x="112" inkscape:window-height="843" inkscape:window-width="1298" inkscape:pageshadow="2" inkscape:pageopacity="0" inkscape:guide-bbox="true">
	<sodipodi:guide  id="guide2989" orientation="1,0" position="309.20742,468.66779"></sodipodi:guide>
	<sodipodi:guide  id="guide3792" orientation="0,1" position="321.23752,235.68601"></sodipodi:guide>
	<sodipodi:guide  id="guide3040" orientation="0,1" position="-937.53273,-479.25511"></sodipodi:guide>
</sodipodi:namedview>
<path id="path2996-2" inkscape:connector-curvature="0" sodipodi:nodetypes="csc" fill="#FFFFFF" stroke="#000000" stroke-width="7.7923" d="
	M-767.232,175.059c0,0-11.15-94.404,17.84-124.881c28.99-30.477,91.431,85.484,91.431,85.484"/>
<path id="path3784-9" inkscape:connector-curvature="0" sodipodi:nodetypes="csc" fill="#FFFFFF" stroke="#000000" stroke-width="7.7923" d="
	M-387.485,175.059c0,0,11.15-94.404-17.84-124.881c-28.99-30.477-91.431,85.484-91.431,85.484"/>
<path id="path3804-4" inkscape:connector-curvature="0" sodipodi:nodetypes="csc" stroke="#000000" stroke-width="7.7923" d="
	M-735.913,156.936c0,0-7.502-31.339,4.807-42.6c12.31-11.26,43.559,25.525,43.559,25.525"/>
<path id="path3808-6" inkscape:connector-curvature="0" sodipodi:nodetypes="csc" stroke="#000000" stroke-width="7.7923" d="
	M-416.06,156.936c0,0,7.503-31.339-4.807-42.6c-12.309-11.26-43.559,25.525-43.559,25.525"/>
<path id="path3834-2" inkscape:connector-curvature="0" fill="#350F0F" stroke="#000000" stroke-width="7.7923" d="
	M-644.223,339.895l-68.167-28.896c0,0,20.747-43.715,60.757-57.793c40.011-14.078,9.632,8.892,9.632,8.892
	s-15.56,31.119-14.078,40.011C-654.597,310.998-644.223,339.895-644.223,339.895z"/>
<path id="path3780-5" inkscape:connector-curvature="0" sodipodi:nodetypes="ccccccccc" fill="#B45704" stroke="#000000" stroke-width="7.7923" d="
	M-578.122,358.609l23.127-2.103l155.583-63.074l25.23,23.127l2.103-35.741l50.459,50.459l-27.332-67.279l71.484,54.664
	c0,0-35.742-191.325-300.655-191.325"/>
<path id="path3832-3" inkscape:connector-curvature="0" fill="#350F0F" stroke="#000000" stroke-width="7.7923" d="
	M-512.107,339.895l68.166-28.896c0,0-20.746-43.715-60.756-57.793c-40.011-14.078-9.632,8.892-9.632,8.892
	s15.56,31.119,14.078,40.011C-501.734,310.998-512.107,339.895-512.107,339.895z"/>
<path id="path3767-5" inkscape:connector-curvature="0" sodipodi:nodetypes="cscc" fill="#FFFFFF" stroke="#000000" stroke-width="7.7923" d="
	M-750.878,293.992c0,0,60.954-75.82,99.607-72.847c38.653,2.973,0,31.964,0,31.964s-46.893,22.973-58.724,57.236"/>
<path id="path3765-8" inkscape:connector-curvature="0" fill="#FFFFFF" stroke="#000000" stroke-width="7.7923" d="
	M-608.157,244.933c0,0,0-40.884-28.247-34.937s-6.69,63.184-6.69,63.184l35.68-25.273L-608.157,244.933z"/>
<path id="path2998-8" inkscape:connector-curvature="0" fill="#FFFFFF" stroke="#000000" stroke-width="7.7923" d="
	M-655.731,209.252c0,0,19.327-16.354,31.221-16.354c11.893,0,10.406-8.92,10.406-8.92s-14.867-11.15-26.017-5.947
	C-651.271,183.235-655.731,209.252-655.731,209.252z"/>
<path id="path3778-4" inkscape:connector-curvature="0" sodipodi:nodetypes="cscc" fill="#FFFFFF" stroke="#000000" stroke-width="7.7923" d="
	M-403.839,293.992c0,0-60.954-75.82-99.607-72.847c-38.654,2.973,0,31.964,0,31.964s46.893,22.973,58.724,57.236"/>
<path id="path3782-0" inkscape:connector-curvature="0" fill="#FFFFFF" stroke="#000000" stroke-width="7.7923" d="M-546.56,244.933
	c0,0,0-40.884,28.247-34.937c28.247,5.947,6.69,63.184,6.69,63.184l-35.681-25.273L-546.56,244.933z"/>
<path id="path3786-4" inkscape:connector-curvature="0" fill="#FFFFFF" stroke="#000000" stroke-width="7.7923" d="
	M-498.986,209.252c0,0-19.327-16.354-31.22-16.354c-11.894,0-10.407-8.92-10.407-8.92s14.867-11.15,26.017-5.947
	C-503.446,183.235-498.986,209.252-498.986,209.252z"/>
<path id="path3794-4" inkscape:connector-curvature="0" sodipodi:nodetypes="cc" fill="none" stroke="#000000" stroke-width="7.7923" d="
	M-610.706,358.251c0,0,23.559,4.357,34.11-4.901"/>
<path id="path3824-3" inkscape:connector-curvature="0" sodipodi:nodetypes="csccc" stroke="#000000" stroke-width="7.7923" d="
	M-628.434,253.576c0,0-10.533-28.944,12.596-34.083c3.334-0.741,7.409,24.822,7.409,24.822 M-608.429,244.314l-20.005,9.262"/>
<path id="path3830-2" inkscape:connector-curvature="0" sodipodi:nodetypes="cscc" stroke="#000000" stroke-width="7.7923" d="
	M-528.038,253.519c0,0-1.931-29.767,21.858-25.038c4.445,0.884-5.557,39.767-5.557,39.767S-521.739,258.526-528.038,253.519z"/>
<path id="path3079" inkscape:connector-curvature="0" sodipodi:nodetypes="ccsscscc" fill="#724A26" stroke="#000000" stroke-width="10" d="
	M1223.149,1896.788l74.229-274.321c0,0-154.847-264.64-477.642-264.639c0,0-96.819-290.458-664.826-309.822
	c-568.006-19.363-806.827,400.187-806.827,400.187s-244.667,80.495-180.729,400.187c3.227,16.136,587.37,71,587.37,71
	L1223.149,1896.788z"/>
<path id="path3849" inkscape:connector-curvature="0" fill="#B9926F" stroke="#000000" stroke-width="10" d="M225.912,1093.188
	l-6.455,293.685l555.097,6.455C774.554,1393.328,668.053,1122.234,225.912,1093.188z"/>
<path id="path3851" inkscape:connector-curvature="0" sodipodi:nodetypes="ccsc" fill="#B9926F" stroke="#000000" stroke-width="10" d="
	M125.865,1390.101l6.455-296.912c0,0-346.539,17.356-606.734,277.548C-477.642,1373.964,125.865,1390.101,125.865,1390.101
	L125.865,1390.101z"/>
<path id="path3853" inkscape:connector-curvature="0" fill="none" stroke="#000000" stroke-width="10" d="M180.729,1093.188
	l-16.136,764.872"/>
<path id="path3855" inkscape:connector-curvature="0" sodipodi:nodetypes="ccsc" fill="none" stroke="#000000" stroke-width="10" d="
	M-148.447,1858.051l804.191,3.228c0,0-15.354-333.113,223.746-416.305c194.778-67.771,325.514,69.452,325.514,69.452"/>
<path id="path3857" sodipodi:rx="240.43439" sodipodi:cy="1811.2642" sodipodi:type="arc" sodipodi:ry="263.02554" sodipodi:cx="1060.1704" fill="#241B14" stroke="#000000" stroke-width="10" d="
	M1245.74,1820.946c0.016,145.265-107.618,263.039-240.406,263.056s-240.447-117.73-240.462-262.996c0-0.02,0-0.04,0-0.06
	c-0.016-145.266,107.618-263.039,240.406-263.056s240.447,117.73,240.462,262.995
	C1245.74,1820.906,1245.74,1820.926,1245.74,1820.946z"/>
<path id="path3857-0" sodipodi:rx="240.43439" sodipodi:cy="1811.2642" sodipodi:type="arc" sodipodi:ry="263.02554" sodipodi:cx="1060.1704" fill="#241B14" stroke="#000000" stroke-width="10" d="
	M-250.116,1825.787c0.015,145.265-107.619,263.039-240.407,263.056c-132.789,0.017-240.447-117.73-240.462-262.995
	c0-0.021,0-0.041,0-0.061c-0.015-145.266,107.619-263.039,240.407-263.056s240.447,117.73,240.462,262.995
	C-250.116,1825.747-250.116,1825.767-250.116,1825.787z"/>
<path id="path3877" inkscape:connector-curvature="0" sodipodi:nodetypes="csc" fill="none" stroke="#000000" stroke-width="10" d="
	M-790.69,1855.15c0,0-35.5-423.095,319.503-423.095c355.004,0,316.276,426.005,316.276,426.005"/>
<path id="path3896" sodipodi:rx="240.43439" sodipodi:cy="1811.2642" sodipodi:type="arc" sodipodi:ry="263.02554" sodipodi:cx="1060.1704" fill="#806A58" stroke="#000000" stroke-width="15.1239" d="
	M1135.14,1820.946c0.009,75.27-58.113,136.295-129.818,136.304s-129.841-61.003-129.849-136.272c0-0.011,0-0.021,0-0.031
	c-0.009-75.271,58.113-136.296,129.818-136.304c71.705-0.01,129.841,61.002,129.849,136.272
	C1135.14,1820.925,1135.14,1820.936,1135.14,1820.946z"/>
<path id="path3898" sodipodi:rx="240.43439" sodipodi:cy="1811.2642" sodipodi:type="arc" sodipodi:ry="263.02554" sodipodi:cx="1060.1704" fill="#806A58" stroke="#000000" stroke-width="15.1239" d="
	M-362.331,1820.946c0.008,75.27-58.114,136.295-129.819,136.304s-129.84-61.003-129.849-136.272c0-0.011,0-0.021,0-0.031
	c-0.008-75.271,58.114-136.296,129.819-136.304c71.706-0.01,129.84,61.002,129.849,136.272
	C-362.331,1820.925-362.331,1820.936-362.331,1820.946z"/>
<g id="g3912" transform="translate(923.0462,516.36914)">
	
		<path id="path2996-2-7" inkscape:connector-curvature="0" sodipodi:nodetypes="csc" fill="#FFFFFF" stroke="#000000" stroke-width="7.7923" d="
		M-504.86,726.407c0,0-11.15-94.404,17.84-124.882c28.99-30.477,91.431,85.484,91.431,85.484"/>
	<g id="g3900">
		
			<path id="path2991-0" inkscape:connector-curvature="0" sodipodi:nodetypes="cccccccccsc" fill="#B45704" stroke="#000000" stroke-width="7.7923" d="
			M-313.184,913.706l-23.128-2.103l-155.583-63.074l-25.229,23.128l-2.103-35.742l-50.46,50.459l27.332-67.279l-71.484,54.665
			c0,0,71.402-204.235,234.655-191.326c0,0,96.795-5.567,88.727,120.297c-8.068,125.865-85.523,37.114-85.523,37.114"/>
		
			<path id="path3788-5" sodipodi:rx="27.52108" sodipodi:cy="223.4064" sodipodi:type="arc" sodipodi:ry="23.473862" sodipodi:cx="310.82629" fill="#FFFFFF" stroke="#000000" stroke-width="2.868" d="
			M-393.811,861.908c0,34.799,33.888,63.009,75.689,63.009s75.689-28.21,75.689-63.009s-33.888-63.009-75.689-63.009
			S-393.811,827.109-393.811,861.908z"/>
		
			<path id="path3790-4" sodipodi:rx="7.7583475" sodipodi:cy="226.49075" sodipodi:type="arc" sodipodi:ry="7.7583475" sodipodi:cx="309.28546" stroke="#000000" stroke-width="2.3991" d="
			M-229.53,882.359c0,13.991-11.223,25.334-25.066,25.334s-25.066-11.343-25.066-25.334s11.223-25.334,25.066-25.334
			S-229.53,868.368-229.53,882.359z"/>
		
			<path id="path3796-2" inkscape:connector-curvature="0" sodipodi:nodetypes="cc" fill="none" stroke="#000000" stroke-width="8.2195" d="
			M-270.904,905.924c0,0-23.559-4.848-34.11,5.454"/>
		<path id="path3804-4-1" inkscape:connector-curvature="0" sodipodi:nodetypes="csc" stroke="#000000" stroke-width="7.7923" d="
			M-473.54,708.284c0,0-7.502-31.339,4.807-42.6c12.31-11.261,43.56,25.524,43.56,25.524"/>
		<path id="path3834-2-4" inkscape:connector-curvature="0" fill="#350F0F" stroke="#000000" stroke-width="7.7923" d="
			M-381.851,891.243l-68.166-28.896c0,0,20.746-43.716,60.757-57.793c40.011-14.078,9.632,8.891,9.632,8.891
			s-15.56,31.12-14.078,40.011C-392.224,862.347-381.851,891.243-381.851,891.243z"/>
		
			<path id="path3767-5-4" inkscape:connector-curvature="0" sodipodi:nodetypes="cscc" fill="#FFFFFF" stroke="#000000" stroke-width="7.7923" d="
			M-488.506,845.341c0,0,60.954-75.82,99.607-72.847c38.653,2.973,0,31.963,0,31.963s-46.893,22.974-58.724,57.237"/>
		<path id="path3765-8-7" inkscape:connector-curvature="0" fill="#FFFFFF" stroke="#000000" stroke-width="7.7923" d="
			M-345.785,796.28c0,0,0-40.884-28.246-34.937c-28.247,5.946-6.69,63.184-6.69,63.184l35.681-25.273L-345.785,796.28z"/>
		<path id="path2998-8-5" inkscape:connector-curvature="0" fill="#FFFFFF" stroke="#000000" stroke-width="7.7923" d="
			M-393.359,760.601c0,0,19.327-16.354,31.221-16.354c11.893,0,10.406-8.92,10.406-8.92s-14.867-11.15-26.017-5.947
			C-388.899,734.584-393.359,760.601-393.359,760.601z"/>
		<path id="path3824-3-2" inkscape:connector-curvature="0" sodipodi:nodetypes="csccc" stroke="#000000" stroke-width="7.7923" d="
			M-366.062,804.924c0,0-10.532-28.943,12.596-34.083c3.334-0.741,7.409,24.821,7.409,24.821 M-346.057,795.662l-20.005,9.262"/>
	</g>
</g>
<g>
	
		<path id="path2996" inkscape:connector-curvature="0" sodipodi:nodetypes="csc" fill="#FFFFFF" stroke="#000000" stroke-width="7.7923" d="
		M132.127,180.473c0,0-11.15-94.404,17.84-124.881c28.99-30.477,91.431,85.484,91.431,85.484"/>
	
		<path id="path3784" inkscape:connector-curvature="0" sodipodi:nodetypes="csc" fill="#FFFFFF" stroke="#000000" stroke-width="7.7923" d="
		M511.874,180.473c0,0,11.149-94.404-17.841-124.881c-28.99-30.477-91.431,85.484-91.431,85.484"/>
	<path id="path3804" inkscape:connector-curvature="0" sodipodi:nodetypes="csc" stroke="#000000" stroke-width="7.7923" d="
		M163.447,162.351c0,0-7.502-31.339,4.807-42.6c12.31-11.261,43.559,25.525,43.559,25.525"/>
	<path id="path3808" inkscape:connector-curvature="0" sodipodi:nodetypes="csc" stroke="#000000" stroke-width="7.7923" d="
		M483.299,162.351c0,0,7.503-31.339-4.807-42.6c-12.309-11.261-43.559,25.525-43.559,25.525"/>
	
		<path id="path2991" inkscape:connector-curvature="0" sodipodi:nodetypes="ccccccccc" fill="#B45704" stroke="#000000" stroke-width="9" d="
		M322.764,364.024l-23.127-2.103l-155.584-63.074l-25.229,23.127l-2.103-35.742l-50.459,50.459l27.332-67.279l-71.484,54.665
		c0,0,35.742-191.326,300.655-191.326"/>
	<path id="path3834" inkscape:connector-curvature="0" fill="#350F0F" stroke="#000000" stroke-width="7.7923" d="M255.136,345.31
		l-68.166-28.896c0,0,20.746-43.716,60.757-57.794c40.011-14.077,9.632,8.892,9.632,8.892s-15.56,31.12-14.078,40.011
		C244.763,316.413,255.136,345.31,255.136,345.31L255.136,345.31z"/>
	
		<path id="path3780" inkscape:connector-curvature="0" sodipodi:nodetypes="ccccccccc" fill="#B45704" stroke="#000000" stroke-width="9" d="
		M321.237,364.024l23.128-2.103l155.583-63.074l25.229,23.127l2.103-35.742l50.46,50.459l-27.332-67.279l71.484,54.665
		c0,0-35.742-191.326-300.655-191.326"/>
	<path id="path3832" inkscape:connector-curvature="0" fill="#350F0F" stroke="#000000" stroke-width="7.7923" d="M387.252,345.31
		l68.166-28.896c0,0-20.746-43.716-60.757-57.794c-40.011-14.077-9.632,8.892-9.632,8.892s15.56,31.12,14.077,40.011
		C397.625,316.413,387.252,345.31,387.252,345.31z"/>
	
		<path id="path3767" inkscape:connector-curvature="0" sodipodi:nodetypes="cscc" fill="#FFFFFF" stroke="#000000" stroke-width="7.7923" d="
		M148.481,299.407c0,0,60.954-75.821,99.607-72.847c38.654,2.973,0,31.963,0,31.963s-46.893,22.974-58.724,57.237"/>
	<path id="path3765" inkscape:connector-curvature="0" fill="#FFFFFF" stroke="#000000" stroke-width="7.7923" d="M291.202,250.347
		c0,0,0-40.883-28.247-34.937c-28.247,5.946-6.69,63.184-6.69,63.184l35.681-25.273L291.202,250.347z"/>
	<path id="path2998" inkscape:connector-curvature="0" fill="#FFFFFF" stroke="#000000" stroke-width="7.7923" d="M243.628,214.667
		c0,0,19.327-16.354,31.22-16.354c11.894,0,10.407-8.92,10.407-8.92s-14.867-11.15-26.017-5.947
		C248.088,188.65,243.628,214.667,243.628,214.667z"/>
	
		<path id="path3778" inkscape:connector-curvature="0" sodipodi:nodetypes="cscc" fill="#FFFFFF" stroke="#000000" stroke-width="7.7923" d="
		M495.521,299.407c0,0-60.954-75.821-99.608-72.847c-38.652,2.973,0,31.963,0,31.963s46.894,22.974,58.725,57.237"/>
	<path id="path3782" inkscape:connector-curvature="0" fill="#FFFFFF" stroke="#000000" stroke-width="7.7923" d="M352.799,250.347
		c0,0,0-40.883,28.247-34.937c28.247,5.946,6.69,63.184,6.69,63.184l-35.681-25.273L352.799,250.347z"/>
	<path id="path3786" inkscape:connector-curvature="0" fill="#FFFFFF" stroke="#000000" stroke-width="7.7923" d="M400.373,214.667
		c0,0-19.327-16.354-31.221-16.354c-11.893,0-10.406-8.92-10.406-8.92s14.867-11.15,26.017-5.947
		C395.912,188.65,400.373,214.667,400.373,214.667z"/>
	<path id="path3824" inkscape:connector-curvature="0" sodipodi:nodetypes="csccc" stroke="#000000" stroke-width="7.7923" d="
		M270.925,258.99c0,0-10.532-28.943,12.596-34.083c3.334-0.741,7.409,24.821,7.409,24.821 M290.93,249.729l-20.005,9.262"/>
	<path id="path3830" inkscape:connector-curvature="0" sodipodi:nodetypes="cscc" stroke="#000000" stroke-width="7.7923" d="
		M371.322,258.934c0,0-1.932-29.768,21.857-25.039c4.445,0.883-5.557,39.767-5.557,39.767S377.619,263.941,371.322,258.934z"/>
	
		<path id="path2991_1_" inkscape:connector-curvature="0" sodipodi:nodetypes="ccccccccc" fill="none" stroke="#000000" stroke-width="9" d="
		M322.764,364.024l-23.127-2.103l-155.584-63.074l-25.229,23.127l-2.103-35.742l-50.459,50.459l27.332-67.279l-71.484,54.665
		c0,0,35.742-191.326,300.655-191.326"/>
	
		<path id="path3780_1_" inkscape:connector-curvature="0" sodipodi:nodetypes="ccccccccc" fill="none" stroke="#000000" stroke-width="9" d="
		M321.237,364.024l23.128-2.103l155.583-63.074l25.229,23.127l2.103-35.742l50.46,50.459l-27.332-67.279l71.484,54.665
		c0,0-35.742-191.326-300.655-191.326"/>
	
		<path id="path3788" sodipodi:rx="27.52108" sodipodi:cy="223.4064" sodipodi:type="arc" sodipodi:ry="23.473862" sodipodi:cx="310.82629" fill="#FFFFFF" stroke="#000000" stroke-width="9" d="
		M245.548,307.322c-0.031,34.799,33.831,63.03,75.632,63.057c41.802,0.025,75.715-28.163,75.746-62.962c0-0.031,0-0.063,0-0.095
		c0-34.799-33.888-63.008-75.689-63.008S245.548,272.523,245.548,307.322L245.548,307.322L245.548,307.322z"/>
	
		<path id="path3790" sodipodi:rx="7.7583475" sodipodi:cy="226.49075" sodipodi:type="arc" sodipodi:ry="7.7583475" sodipodi:cx="309.28546" stroke="#000000" stroke-width="2.3991" d="
		M347.83,327.773c0.006,13.992-11.211,25.34-25.055,25.347s-25.072-11.33-25.079-25.321c0-0.009,0-0.017,0-0.025
		c-0.006-13.991,11.21-25.339,25.054-25.346c13.845-0.007,25.072,11.33,25.079,25.321C347.83,327.758,347.83,327.766,347.83,327.773
		z"/>
	
		<path id="path3794" inkscape:connector-curvature="0" sodipodi:nodetypes="cc" fill="none" stroke="#000000" stroke-width="7.7923" d="
		M288.653,363.666c0,0,23.559,4.356,34.11-4.902"/>
	
		<path id="path3796" inkscape:connector-curvature="0" sodipodi:nodetypes="cc" fill="none" stroke="#000000" stroke-width="7.7923" d="
		M353.933,363.666c0,0-23.56,4.356-34.11-4.902"/>
</g>
</svg>
