<?xml version="1.0" encoding="utf-8"?>
<!-- Generator: Adobe Illustrator 18.0.0, SVG Export Plug-In . SVG Version: 6.00 Build 0)  -->
<svg version="1.1"
	 id="svg2" xmlns:sodipodi="http://sodipodi.sourceforge.net/DTD/sodipodi-0.dtd" xmlns:svg="http://www.w3.org/2000/svg" xmlns:cc="http://creativecommons.org/ns#" xmlns:dc="http://purl.org/dc/elements/1.1/" xmlns:rdf="http://www.w3.org/1999/02/22-rdf-syntax-ns#" xmlns:inkscape="http://www.inkscape.org/namespaces/inkscape" inkscape:version="0.48.3.1 r9886" sodipodi:docname="eco.jpg.svg"
	 xmlns="http://www.w3.org/2000/svg" xmlns:xlink="http://www.w3.org/1999/xlink" x="0px" y="0px" viewBox="0 0 640 480"
	 enable-background="new 0 0 640 480" xml:space="preserve">
<sodipodi:namedview  borderopacity="1" bordercolor="#666666" objecttolerance="10" inkscape:cy="-1234.9386" pagecolor="#ffffff" inkscape:zoom="0.10955059" gridtolerance="10" inkscape:cx="-1323.9218" showgrid="false" guidetolerance="10" showguides="true" id="namedview4" inkscape:guide-bbox="true" inkscape:pageopacity="0" inkscape:pageshadow="2" inkscape:current-layer="svg2" inkscape:window-height="843" inkscape:window-x="112" inkscape:window-y="96" inkscape:window-maximized="0" inkscape:window-width="1298">
	<sodipodi:guide  orientation="1,0" position="309.20742,468.66779" id="guide2989"></sodipodi:guide>
	<sodipodi:guide  orientation="0,1" position="321.23752,235.68601" id="guide3792"></sodipodi:guide>
	<sodipodi:guide  orientation="0,1" position="-937.53273,-479.25511" id="guide3040"></sodipodi:guide>
</sodipodi:namedview>
<path id="path2996-2" sodipodi:nodetypes="csc" inkscape:connector-curvature="0" fill="#FFFFFF" stroke="#000000" stroke-width="7.7923" d="
	M-767.2,175.1c0,0-11.2-94.4,17.8-124.9c29-30.5,91.4,85.5,91.4,85.5"/>
<path id="path3784-9" sodipodi:nodetypes="csc" inkscape:connector-curvature="0" fill="#FFFFFF" stroke="#000000" stroke-width="7.7923" d="
	M-387.5,175.1c0,0,11.1-94.4-17.8-124.9s-91.4,85.5-91.4,85.5"/>
<path id="path3804-4" sodipodi:nodetypes="csc" inkscape:connector-curvature="0" stroke="#000000" stroke-width="7.7923" d="
	M-735.9,156.9c0,0-7.5-31.3,4.8-42.6c12.3-11.3,43.6,25.5,43.6,25.5"/>
<path id="path3808-6" sodipodi:nodetypes="csc" inkscape:connector-curvature="0" stroke="#000000" stroke-width="7.7923" d="
	M-416.1,156.9c0,0,7.5-31.3-4.8-42.6c-12.3-11.3-43.6,25.5-43.6,25.5"/>
<path id="path3834-2" inkscape:connector-curvature="0" fill="#350F0F" stroke="#000000" stroke-width="7.7923" d="M-644.2,339.9
	l-68.2-28.9c0,0,20.7-43.7,60.8-57.8c40-14.1,9.6,8.9,9.6,8.9s-15.6,31.1-14.1,40C-654.6,311-644.2,339.9-644.2,339.9z"/>
<path id="path3780-5" sodipodi:nodetypes="ccccccccc" inkscape:connector-curvature="0" fill="#B45704" stroke="#000000" stroke-width="7.7923" d="
	M-578.1,358.6l23.1-2.1l155.6-63.1l25.2,23.1l2.1-35.7l50.5,50.5L-349,264l71.5,54.7c0,0-35.7-191.3-300.7-191.3"/>
<path id="path3832-3" inkscape:connector-curvature="0" fill="#350F0F" stroke="#000000" stroke-width="7.7923" d="M-512.1,339.9
	l68.2-28.9c0,0-20.7-43.7-60.8-57.8c-40-14.1-9.6,8.9-9.6,8.9s15.6,31.1,14.1,40C-501.7,311-512.1,339.9-512.1,339.9z"/>
<path id="path3767-5" sodipodi:nodetypes="cscc" inkscape:connector-curvature="0" fill="#FFFFFF" stroke="#000000" stroke-width="7.7923" d="
	M-750.9,294c0,0,61-75.8,99.6-72.8s0,32,0,32s-46.9,23-58.7,57.2"/>
<path id="path3765-8" inkscape:connector-curvature="0" fill="#FFFFFF" stroke="#000000" stroke-width="7.7923" d="M-608.2,244.9
	c0,0,0-40.9-28.2-34.9s-6.7,63.2-6.7,63.2l35.7-25.3L-608.2,244.9z"/>
<path id="path2998-8" inkscape:connector-curvature="0" fill="#FFFFFF" stroke="#000000" stroke-width="7.7923" d="M-655.7,209.3
	c0,0,19.3-16.4,31.2-16.4c11.9,0,10.4-8.9,10.4-8.9s-14.9-11.1-26-5.9C-651.3,183.2-655.7,209.3-655.7,209.3z"/>
<path id="path3778-4" sodipodi:nodetypes="cscc" inkscape:connector-curvature="0" fill="#FFFFFF" stroke="#000000" stroke-width="7.7923" d="
	M-403.8,294c0,0-61-75.8-99.6-72.8c-38.7,3,0,32,0,32s46.9,23,58.7,57.2"/>
<path id="path3782-0" inkscape:connector-curvature="0" fill="#FFFFFF" stroke="#000000" stroke-width="7.7923" d="M-546.6,244.9
	c0,0,0-40.9,28.2-34.9s6.7,63.2,6.7,63.2l-35.7-25.3L-546.6,244.9z"/>
<path id="path3786-4" inkscape:connector-curvature="0" fill="#FFFFFF" stroke="#000000" stroke-width="7.7923" d="M-499,209.3
	c0,0-19.3-16.4-31.2-16.4c-11.9,0-10.4-8.9-10.4-8.9s14.9-11.1,26-5.9C-503.4,183.2-499,209.3-499,209.3z"/>
<path id="path3794-4" sodipodi:nodetypes="cc" inkscape:connector-curvature="0" fill="none" stroke="#000000" stroke-width="7.7923" d="
	M-610.7,358.3c0,0,23.6,4.4,34.1-4.9"/>
<path id="path3824-3" sodipodi:nodetypes="csccc" inkscape:connector-curvature="0" stroke="#000000" stroke-width="7.7923" d="
	M-628.4,253.6c0,0-10.5-28.9,12.6-34.1c3.3-0.7,7.4,24.8,7.4,24.8 M-608.4,244.3l-20,9.3"/>
<path id="path3830-2" sodipodi:nodetypes="cscc" inkscape:connector-curvature="0" stroke="#000000" stroke-width="7.7923" d="
	M-528,253.5c0,0-1.9-29.8,21.9-25c4.4,0.9-5.6,39.8-5.6,39.8S-521.7,258.5-528,253.5z"/>
<path id="path3079" sodipodi:nodetypes="ccsscscc" inkscape:connector-curvature="0" fill="#724A26" stroke="#000000" stroke-width="10" d="
	M1223.1,1896.8l74.2-274.3c0,0-154.8-264.6-477.6-264.6c0,0-96.8-290.5-664.8-309.8c-568-19.4-806.8,400.2-806.8,400.2
	s-244.7,80.5-180.7,400.2c3.2,16.1,587.4,71,587.4,71L1223.1,1896.8z"/>
<path id="path3849" inkscape:connector-curvature="0" fill="#B9926F" stroke="#000000" stroke-width="10" d="M225.9,1093.2
	l-6.5,293.7l555.1,6.5C774.6,1393.3,668.1,1122.2,225.9,1093.2z"/>
<path id="path3851" sodipodi:nodetypes="ccsc" inkscape:connector-curvature="0" fill="#B9926F" stroke="#000000" stroke-width="10" d="
	M125.9,1390.1l6.5-296.9c0,0-346.5,17.4-606.7,277.5C-477.6,1374,125.9,1390.1,125.9,1390.1L125.9,1390.1z"/>
<path id="path3853" inkscape:connector-curvature="0" fill="none" stroke="#000000" stroke-width="10" d="M180.7,1093.2l-16.1,764.9
	"/>
<path id="path3855" sodipodi:nodetypes="ccsc" inkscape:connector-curvature="0" fill="none" stroke="#000000" stroke-width="10" d="
	M-148.4,1858.1l804.2,3.2c0,0-15.4-333.1,223.7-416.3c194.8-67.8,325.5,69.5,325.5,69.5"/>
<path id="path3857" sodipodi:cy="1811.2642" sodipodi:cx="1060.1704" sodipodi:rx="240.43439" sodipodi:type="arc" sodipodi:ry="263.02554" fill="#241B14" stroke="#000000" stroke-width="10" d="
	M1245.7,1820.9c0,145.3-107.6,263-240.4,263.1s-240.4-117.7-240.5-263c0,0,0,0,0-0.1c0-145.3,107.6-263,240.4-263.1
	S1245.7,1675.6,1245.7,1820.9C1245.7,1820.9,1245.7,1820.9,1245.7,1820.9z"/>
<path id="path3857-0" sodipodi:cy="1811.2642" sodipodi:cx="1060.1704" sodipodi:rx="240.43439" sodipodi:type="arc" sodipodi:ry="263.02554" fill="#241B14" stroke="#000000" stroke-width="10" d="
	M-250.1,1825.8c0,145.3-107.6,263-240.4,263.1c-132.8,0-240.4-117.7-240.5-263c0,0,0,0,0-0.1c0-145.3,107.6-263,240.4-263.1
	S-250.1,1680.5-250.1,1825.8C-250.1,1825.7-250.1,1825.8-250.1,1825.8z"/>
<path id="path3877" sodipodi:nodetypes="csc" inkscape:connector-curvature="0" fill="none" stroke="#000000" stroke-width="10" d="
	M-790.7,1855.2c0,0-35.5-423.1,319.5-423.1c355,0,316.3,426,316.3,426"/>
<path id="path3896" sodipodi:cy="1811.2642" sodipodi:cx="1060.1704" sodipodi:rx="240.43439" sodipodi:type="arc" sodipodi:ry="263.02554" fill="#806A58" stroke="#000000" stroke-width="15.1239" d="
	M1135.1,1820.9c0,75.3-58.1,136.3-129.8,136.3s-129.8-61-129.8-136.3c0,0,0,0,0,0c0-75.3,58.1-136.3,129.8-136.3
	C1077,1684.6,1135.1,1745.6,1135.1,1820.9C1135.1,1820.9,1135.1,1820.9,1135.1,1820.9z"/>
<path id="path3898" sodipodi:cy="1811.2642" sodipodi:cx="1060.1704" sodipodi:rx="240.43439" sodipodi:type="arc" sodipodi:ry="263.02554" fill="#806A58" stroke="#000000" stroke-width="15.1239" d="
	M-362.3,1820.9c0,75.3-58.1,136.3-129.8,136.3S-622,1896.2-622,1821c0,0,0,0,0,0c0-75.3,58.1-136.3,129.8-136.3
	C-420.5,1684.6-362.3,1745.6-362.3,1820.9C-362.3,1820.9-362.3,1820.9-362.3,1820.9z"/>
<g id="g3912" transform="translate(923.0462,516.36914)">
	
		<path id="path2996-2-7" sodipodi:nodetypes="csc" inkscape:connector-curvature="0" fill="#FFFFFF" stroke="#000000" stroke-width="7.7923" d="
		M-504.9,726.4c0,0-11.2-94.4,17.8-124.9c29-30.5,91.4,85.5,91.4,85.5"/>
	<g id="g3900">
		
			<path id="path2991-0" sodipodi:nodetypes="cccccccccsc" inkscape:connector-curvature="0" fill="#B45704" stroke="#000000" stroke-width="7.7923" d="
			M-313.2,913.7l-23.1-2.1l-155.6-63.1l-25.2,23.1l-2.1-35.7l-50.5,50.5l27.3-67.3l-71.5,54.7c0,0,71.4-204.2,234.7-191.3
			c0,0,96.8-5.6,88.7,120.3c-8.1,125.9-85.5,37.1-85.5,37.1"/>
		
			<path id="path3788-5" sodipodi:cy="223.4064" sodipodi:cx="310.82629" sodipodi:rx="27.52108" sodipodi:type="arc" sodipodi:ry="23.473862" fill="#FFFFFF" stroke="#000000" stroke-width="2.868" d="
			M-393.8,861.9c0,34.8,33.9,63,75.7,63s75.7-28.2,75.7-63s-33.9-63-75.7-63S-393.8,827.1-393.8,861.9z"/>
		
			<path id="path3790-4" sodipodi:cy="226.49075" sodipodi:cx="309.28546" sodipodi:rx="7.7583475" sodipodi:type="arc" sodipodi:ry="7.7583475" stroke="#000000" stroke-width="2.3991" d="
			M-229.5,882.4c0,14-11.2,25.3-25.1,25.3s-25.1-11.3-25.1-25.3s11.2-25.3,25.1-25.3S-229.5,868.4-229.5,882.4z"/>
		
			<path id="path3796-2" sodipodi:nodetypes="cc" inkscape:connector-curvature="0" fill="none" stroke="#000000" stroke-width="8.2195" d="
			M-270.9,905.9c0,0-23.6-4.8-34.1,5.5"/>
		<path id="path3804-4-1" sodipodi:nodetypes="csc" inkscape:connector-curvature="0" stroke="#000000" stroke-width="7.7923" d="
			M-473.5,708.3c0,0-7.5-31.3,4.8-42.6c12.3-11.3,43.6,25.5,43.6,25.5"/>
		<path id="path3834-2-4" inkscape:connector-curvature="0" fill="#350F0F" stroke="#000000" stroke-width="7.7923" d="
			M-381.9,891.2l-68.2-28.9c0,0,20.7-43.7,60.8-57.8c40-14.1,9.6,8.9,9.6,8.9s-15.6,31.1-14.1,40
			C-392.2,862.3-381.9,891.2-381.9,891.2z"/>
		
			<path id="path3767-5-4" sodipodi:nodetypes="cscc" inkscape:connector-curvature="0" fill="#FFFFFF" stroke="#000000" stroke-width="7.7923" d="
			M-488.5,845.3c0,0,61-75.8,99.6-72.8s0,32,0,32s-46.9,23-58.7,57.2"/>
		<path id="path3765-8-7" inkscape:connector-curvature="0" fill="#FFFFFF" stroke="#000000" stroke-width="7.7923" d="
			M-345.8,796.3c0,0,0-40.9-28.2-34.9c-28.2,5.9-6.7,63.2-6.7,63.2l35.7-25.3L-345.8,796.3z"/>
		<path id="path2998-8-5" inkscape:connector-curvature="0" fill="#FFFFFF" stroke="#000000" stroke-width="7.7923" d="
			M-393.4,760.6c0,0,19.3-16.4,31.2-16.4c11.9,0,10.4-8.9,10.4-8.9s-14.9-11.2-26-5.9C-388.9,734.6-393.4,760.6-393.4,760.6z"/>
		<path id="path3824-3-2" sodipodi:nodetypes="csccc" inkscape:connector-curvature="0" stroke="#000000" stroke-width="7.7923" d="
			M-366.1,804.9c0,0-10.5-28.9,12.6-34.1c3.3-0.7,7.4,24.8,7.4,24.8 M-346.1,795.7l-20,9.3"/>
	</g>
</g>
<g>
	
		<path id="path2996" sodipodi:nodetypes="csc" inkscape:connector-curvature="0" fill="#FFFFFF" stroke="#000000" stroke-width="7.7923" d="
		M132.1,180.5c0,0-11.2-94.4,17.8-124.9s91.4,85.5,91.4,85.5"/>
	
		<path id="path3784" sodipodi:nodetypes="csc" inkscape:connector-curvature="0" fill="#FFFFFF" stroke="#000000" stroke-width="7.7923" d="
		M511.9,180.5c0,0,11.1-94.4-17.8-124.9c-29-30.5-91.4,85.5-91.4,85.5"/>
	<path id="path3804" sodipodi:nodetypes="csc" inkscape:connector-curvature="0" stroke="#000000" stroke-width="7.7923" d="
		M163.4,162.4c0,0-7.5-31.3,4.8-42.6c12.3-11.3,43.6,25.5,43.6,25.5"/>
	<path id="path3808" sodipodi:nodetypes="csc" inkscape:connector-curvature="0" stroke="#000000" stroke-width="7.7923" d="
		M483.3,162.4c0,0,7.5-31.3-4.8-42.6c-12.3-11.3-43.6,25.5-43.6,25.5"/>
	
		<path id="path2991" sodipodi:nodetypes="ccccccccc" inkscape:connector-curvature="0" fill="#B45704" stroke="#000000" stroke-width="9" d="
		M322.8,364l-23.1-2.1l-155.6-63.1L118.8,322l-2.1-35.7l-50.5,50.5l27.3-67.3l-71.5,54.7c0,0,35.7-191.3,300.7-191.3"/>
	<path id="path3834" inkscape:connector-curvature="0" fill="#350F0F" stroke="#000000" stroke-width="7.7923" d="M255.1,345.3
		L187,316.4c0,0,20.7-43.7,60.8-57.8c40-14.1,9.6,8.9,9.6,8.9s-15.6,31.1-14.1,40C244.8,316.4,255.1,345.3,255.1,345.3L255.1,345.3z
		"/>
	
		<path id="path3780" sodipodi:nodetypes="ccccccccc" inkscape:connector-curvature="0" fill="#B45704" stroke="#000000" stroke-width="9" d="
		M321.2,364l23.1-2.1l155.6-63.1l25.2,23.1l2.1-35.7l50.5,50.5l-27.3-67.3l71.5,54.7c0,0-35.7-191.3-300.7-191.3"/>
	<path id="path3832" inkscape:connector-curvature="0" fill="#350F0F" stroke="#000000" stroke-width="7.7923" d="M387.3,345.3
		l68.2-28.9c0,0-20.7-43.7-60.8-57.8c-40-14.1-9.6,8.9-9.6,8.9s15.6,31.1,14.1,40C397.6,316.4,387.3,345.3,387.3,345.3z"/>
	
		<path id="path3767" sodipodi:nodetypes="cscc" inkscape:connector-curvature="0" fill="#FFFFFF" stroke="#000000" stroke-width="7.7923" d="
		M148.5,299.4c0,0,61-75.8,99.6-72.8c38.7,3,0,32,0,32s-46.9,23-58.7,57.2"/>
	<path id="path3765" inkscape:connector-curvature="0" fill="#FFFFFF" stroke="#000000" stroke-width="7.7923" d="M291.2,250.3
		c0,0,0-40.9-28.2-34.9s-6.7,63.2-6.7,63.2l35.7-25.3L291.2,250.3z"/>
	<path id="path2998" inkscape:connector-curvature="0" fill="#FFFFFF" stroke="#000000" stroke-width="7.7923" d="M243.6,214.7
		c0,0,19.3-16.4,31.2-16.4c11.9,0,10.4-8.9,10.4-8.9s-14.9-11.1-26-5.9C248.1,188.6,243.6,214.7,243.6,214.7z"/>
	
		<path id="path3778" sodipodi:nodetypes="cscc" inkscape:connector-curvature="0" fill="#FFFFFF" stroke="#000000" stroke-width="7.7923" d="
		M495.5,299.4c0,0-61-75.8-99.6-72.8c-38.7,3,0,32,0,32s46.9,23,58.7,57.2"/>
	<path id="path3782" inkscape:connector-curvature="0" fill="#FFFFFF" stroke="#000000" stroke-width="7.7923" d="M352.8,250.3
		c0,0,0-40.9,28.2-34.9s6.7,63.2,6.7,63.2l-35.7-25.3L352.8,250.3z"/>
	<path id="path3786" inkscape:connector-curvature="0" fill="#FFFFFF" stroke="#000000" stroke-width="7.7923" d="M400.4,214.7
		c0,0-19.3-16.4-31.2-16.4c-11.9,0-10.4-8.9-10.4-8.9s14.9-11.1,26-5.9C395.9,188.6,400.4,214.7,400.4,214.7z"/>
	<path id="path3824" sodipodi:nodetypes="csccc" inkscape:connector-curvature="0" stroke="#000000" stroke-width="7.7923" d="
		M270.9,259c0,0-10.5-28.9,12.6-34.1c3.3-0.7,7.4,24.8,7.4,24.8 M290.9,249.7l-20,9.3"/>
	<path id="path3830" sodipodi:nodetypes="cscc" inkscape:connector-curvature="0" stroke="#000000" stroke-width="7.7923" d="
		M371.3,258.9c0,0-1.9-29.8,21.9-25c4.4,0.9-5.6,39.8-5.6,39.8S377.6,263.9,371.3,258.9z"/>
	
		<path id="path2991_1_" sodipodi:nodetypes="ccccccccc" inkscape:connector-curvature="0" fill="none" stroke="#000000" stroke-width="9" d="
		M322.8,364l-23.1-2.1l-155.6-63.1L118.8,322l-2.1-35.7l-50.5,50.5l27.3-67.3l-71.5,54.7c0,0,35.7-191.3,300.7-191.3"/>
	
		<path id="path3780_1_" sodipodi:nodetypes="ccccccccc" inkscape:connector-curvature="0" fill="none" stroke="#000000" stroke-width="9" d="
		M321.2,364l23.1-2.1l155.6-63.1l25.2,23.1l2.1-35.7l50.5,50.5l-27.3-67.3l71.5,54.7c0,0-35.7-191.3-300.7-191.3"/>
	
		<path id="path3788" sodipodi:cy="223.4064" sodipodi:cx="310.82629" sodipodi:rx="27.52108" sodipodi:type="arc" sodipodi:ry="23.473862" fill="#FFFFFF" stroke="#000000" stroke-width="9" d="
		M245.5,307.3c0,34.8,33.8,63,75.6,63.1c41.8,0,75.7-28.2,75.7-63c0,0,0-0.1,0-0.1c0-34.8-33.9-63-75.7-63S245.5,272.5,245.5,307.3
		L245.5,307.3L245.5,307.3z"/>
	
		<path id="path3790" sodipodi:cy="226.49075" sodipodi:cx="309.28546" sodipodi:rx="7.7583475" sodipodi:type="arc" sodipodi:ry="7.7583475" stroke="#000000" stroke-width="2.3991" d="
		M347.8,327.8c0,14-11.2,25.3-25.1,25.3s-25.1-11.3-25.1-25.3c0,0,0,0,0,0c0-14,11.2-25.3,25.1-25.3
		C336.6,302.4,347.8,313.8,347.8,327.8C347.8,327.8,347.8,327.8,347.8,327.8z"/>
	
		<path id="path3794" sodipodi:nodetypes="cc" inkscape:connector-curvature="0" fill="none" stroke="#000000" stroke-width="7.7923" d="
		M288.7,363.7c0,0,23.6,4.4,34.1-4.9"/>
	
		<path id="path3796" sodipodi:nodetypes="cc" inkscape:connector-curvature="0" fill="none" stroke="#000000" stroke-width="7.7923" d="
		M353.9,363.7c0,0-23.6,4.4-34.1-4.9"/>
</g>
</svg>
