<?xml version="1.0" encoding="utf-8"?>
<!-- Generator: Adobe Illustrator 18.0.0, SVG Export Plug-In . SVG Version: 6.00 Build 0)  -->
<svg version="1.1"
	 id="svg2" sodipodi:docname="Lesser_panda_standing.jpg.svg" inkscape:version="0.48.3.1 r9886" xmlns:sodipodi="http://sodipodi.sourceforge.net/DTD/sodipodi-0.dtd" xmlns:svg="http://www.w3.org/2000/svg" xmlns:cc="http://creativecommons.org/ns#" xmlns:dc="http://purl.org/dc/elements/1.1/" xmlns:rdf="http://www.w3.org/1999/02/22-rdf-syntax-ns#" xmlns:inkscape="http://www.inkscape.org/namespaces/inkscape"
	 xmlns="http://www.w3.org/2000/svg" xmlns:xlink="http://www.w3.org/1999/xlink" x="0px" y="0px" viewBox="0 0 1136 852"
	 enable-background="new 0 0 1136 852" xml:space="preserve">
<sodipodi:namedview  objecttolerance="10" showgrid="false" inkscape:zoom="0.79137324" bordercolor="#666666" showguides="true" pagecolor="#ffffff" inkscape:cy="426" guidetolerance="10" gridtolerance="10" inkscape:cx="568" id="namedview4" borderopacity="1" inkscape:window-width="1384" inkscape:window-maximized="1" inkscape:window-y="24" inkscape:window-x="56" inkscape:window-height="876" inkscape:current-layer="svg2" inkscape:pageshadow="2" inkscape:pageopacity="0" inkscape:guide-bbox="true">
	<sodipodi:guide  orientation="1,0" position="1211.8176,-34.117909" id="guide3892"></sodipodi:guide>
</sodipodi:namedview>
<path id="path3811" inkscape:connector-curvature="0" fill="#120505" stroke="#000000" stroke-width="2.418" d="M557.7,667
	c0,0-26.7-5.2-33.3-8.9c-6.7-3.7-7.6-6.7-7.6-9.8c0-3.1,0.6-2.8,0.6-2.8s-5.1-6.3-0.7-10.5c4.4-4.2,9.6-4.1,18.5-2.7
	c9,1.4,18.5,7.2,21.3,3.4c2.8-3.8,7.8-13.2,7.8-13.2l15.1,47.4L557.7,667z"/>
<path id="path3179" inkscape:connector-curvature="0" sodipodi:nodetypes="ccsscssscscccc" inkscape:transform-center-y="306.87595" inkscape:transform-center-x="-119.72122" fill="#B45704" stroke="#000000" stroke-width="2.4179" d="
	M515.2,201L472,162.9c0,0,15.9-9.3,18.7-17.3c2.9-7.9,14.4-20.9,52.6-12.9c38.2,7.9,36.2,99.4,36.2,99.4s11.6,134.4,37.8,185.8
	S718.4,560.5,739.2,593s106.5-16.2,94.8,49.6s-114.6,29.8-114.6,29.8s-29.8-7.2-67.7-83.9c-9.5-19.2-14.2-28.8-18.2-23.4l0,0
	L597,616.5L564.5,537"/>
<path id="path3882" inkscape:connector-curvature="0" sodipodi:nodetypes="csccsssccccccccscsscscssccssc" fill="#120505" stroke="#000000" stroke-width="2.0268" d="
	M517.1,345.5c0,0-22.6,34.4-34.5,26.9S443,319.7,443,319.7l5.5,6.4c0,0-15.8,15.5-21.7,15.6s-6.5-8.6-7.2-14.4
	c-0.7-5.8,19.8-38.6,27-40.1s37.9,10.1,37.9,10.1l21.1-42.8c0,0,4.1-23.5-11-32c-10.1-6.6-16.9-9.5-16.9-9.5l11.5-7l36-2
	c0,0,4.5-3.6,16.5,5.4c0,0,24.2,17,13.4,80.2C553,291,537,365,558,434s28.5,100.5,71.6,136.5c-3.9,6.4-3.7,20.3-4.6,37
	c-1.8,33.5,0.5,76.6-2.3,76.6c-5.4,0-75.8,30.7-79.4,21.7c0,0-1.9-3.7-2.9-7.8l-0.2-0.6c0,0-13.5-4.5-1.9-21.1
	c0.8-1.2,14.3-6.5,35.3-6.5c6.1,0-3.7-38.5-6.5-43.2c-7.2-15.5-16-94.3-16-94.3s-11.6-8.8-25.2-40.7s-18.3-78-19.9-99.9
	c-1.6-21.9,2.1-33.3,2.1-33.3"/>
<path id="path3832" inkscape:connector-curvature="0" inkscape:transform-center-y="315.12687" inkscape:transform-center-x="-89.577722" fill="#350F0F" stroke="#000000" stroke-width="3.0608" d="
	M481,205.5l29.1,1.8c0,0,0.4-19-11.2-30.9c-11.6-11.9-4.9,1.4-4.9,1.4s0,13.7-2.1,16.5C489.7,197.1,481,205.5,481,205.5L481,205.5z"
	/>
<path id="path3765" inkscape:connector-curvature="0" inkscape:transform-center-y="290.09815" inkscape:transform-center-x="-87.586847" fill="#FFFFFF" stroke="#000000" stroke-width="2.5819" d="
	M487.3,165.6c0,0,0-15,8.4-12.8s2,23.2,2,23.2l-10.7-9.3L487.3,165.6z"/>
<path id="path2998" inkscape:connector-curvature="0" inkscape:transform-center-y="272.33268" inkscape:transform-center-x="-89.289425" fill="#FFFFFF" stroke="#000000" stroke-width="2.5819" d="
	M501.5,152.5c0,0-5.8-6-9.3-6c-3.6,0-3.1-3.3-3.1-3.3s4.4-4.1,7.8-2.2C500.2,142.9,501.5,152.5,501.5,152.5z"/>
<path id="path3778" inkscape:connector-curvature="0" sodipodi:nodetypes="cscc" inkscape:transform-center-y="312.10888" inkscape:transform-center-x="-106.59953" fill="#FFFFFF" stroke="#000000" stroke-width="2.8524" d="
	M525.8,204.4c0,0-8.6-37.8-20.1-39.7c-11.5-1.9-3.8,13.8-3.8,13.8s10.8,13.8,10.1,29.6"/>
<path id="path3788" sodipodi:ry="23.473862" sodipodi:type="arc" sodipodi:rx="27.52108" sodipodi:cx="310.82629" sodipodi:cy="223.4064" inkscape:transform-center-y="313.56845" inkscape:transform-center-x="-69.656321" fill="#FFFFFF" stroke="#000000" stroke-width="2.8678" d="
	M457.1,187.7c0,13.7,8.3,24.7,18.6,24.7c10.3,0,18.6-11,18.6-24.7c0,0,0,0,0,0c0-13.7-8.3-24.7-18.6-24.7
	C465.4,163,457.1,174.1,457.1,187.7L457.1,187.7L457.1,187.7z"/>
<path id="path3790" sodipodi:ry="7.7583475" sodipodi:type="arc" sodipodi:rx="7.7583475" sodipodi:cx="309.28546" sodipodi:cy="226.49075" inkscape:transform-center-y="308.64667" inkscape:transform-center-x="-53.331775" stroke="#000000" stroke-width="2.3991" d="
	M469.2,182.8c0,5.5-4.4,9.9-9.9,9.9c-5.4,0-9.9-4.4-9.9-9.9c0,0,0,0,0,0c0-5.5,4.4-9.9,9.9-9.9C464.7,172.9,469.2,177.3,469.2,182.8
	C469.2,182.8,469.2,182.8,469.2,182.8z"/>
<path id="path3824" inkscape:connector-curvature="0" sodipodi:nodetypes="csccc" inkscape:transform-center-y="288.34681" inkscape:transform-center-x="-84.730842" stroke="#000000" stroke-width="2.5819" d="
	M493.3,168.8c0,0,3.1-10.6-3.8-12.5c-1-0.3-2.2,9.1-2.2,9.1 M487.4,165.4l6,3.4"/>
<path id="path3949" inkscape:connector-curvature="0" sodipodi:nodetypes="cssc" inkscape:transform-center-y="275.43023" inkscape:transform-center-x="-154.98347" fill="#FFFFFF" stroke="#000000" stroke-width="2.2267" d="
	M538.9,147.6c0,0,17.9-33.8,44.1-25.1c0,0-2.2,41.7-7.2,50.3C570.7,181.6,564.2,182.9,538.9,147.6L538.9,147.6z"/>
<path id="path3959" inkscape:connector-curvature="0" sodipodi:nodetypes="cscc" inkscape:transform-center-y="260.64006" inkscape:transform-center-x="-152.39282" stroke="#000000" stroke-width="2.2267" d="
	M583,123.3c0,0-33.5-6.3-49,18.7c-1.4,2.3,5.1,5,5.1,5S554.1,119,583,123.3z"/>
<path id="path3808" inkscape:connector-curvature="0" sodipodi:nodetypes="csc" inkscape:transform-center-y="284.79542" inkscape:transform-center-x="-147.20028" stroke="#000000" stroke-width="3.0608" d="
	M555.9,168c0,0,8.9-9,7-15.3c-1.9-6.3-19.9-0.3-19.9-0.3"/>
<path id="path3813" inkscape:connector-curvature="0" fill="none" stroke="#000000" stroke-width="2" d="M547.8,652.1
	c0,0-8.8,0.7-4.4,12.2"/>
<path id="path3037" inkscape:connector-curvature="0" fill="none" stroke="#000000" stroke-width="2" d="M553.3,677.1
	c0,0-14-0.6-19.1,6.4"/>
<path id="path3815" inkscape:connector-curvature="0" fill="none" stroke="#000000" stroke-width="1.974" d="M533.1,660.7
	c0,0-1.8-15.8,9.9-15.4"/>
<path id="path3039" inkscape:connector-curvature="0" fill="none" stroke="#000000" stroke-width="2" d="M550.8,686.7
	c0,0-8.9,5.7-10.2,11.5"/>
<path id="path3880" inkscape:connector-curvature="0" sodipodi:nodetypes="ccsssccsc" fill="#120505" stroke="#000000" stroke-width="2.4" d="
	M507,267l-9,53c0,0-41-2-49,2s-20,46-17,52s7,15,14,13s20-24,20-24l-9-5c0,0,50,39,67,43s23-6.5,23-6.5"/>
<path id="path3884" inkscape:connector-curvature="0" sodipodi:nodetypes="cscsc" fill="#350F0F" stroke="#000000" stroke-width="2" d="
	M645.5,576c0,0,48-19.7,48-46c0-0.5,21,28.5,21,28.5S693,602,660,602C659.5,602,645.5,576,645.5,576z"/>
<path id="path3888" inkscape:connector-curvature="0" sodipodi:nodetypes="csssc" fill="#350F0F" stroke="#000000" stroke-width="2" d="
	M680.5,635.5c0,0,26.8-1.9,58-43.5c1.5-2-1.5,12,23,13c5,0.2-12.8,35.6-56.5,57.5C703,663.5,680.5,635.5,680.5,635.5z"/>
<path id="path3890" inkscape:connector-curvature="0" sodipodi:nodetypes="cszsc" fill="#350F0F" stroke="#000000" d="M786.7,606.3
	c0,0-8.1,43.4-37.8,73.2c0,0,30.5,6.2,49.9-0.4c19.4-6.5,42.3-50,22.3-70C814.2,602.4,786.7,606.3,786.7,606.3L786.7,606.3z"/>
</svg>
